<?xml version="1.0" encoding="utf-8"?>
<!-- Generator: Adobe Illustrator 27.4.1, SVG Export Plug-In . SVG Version: 6.00 Build 0)  -->
<svg version="1.1" id="Capa_1" xmlns="http://www.w3.org/2000/svg" xmlns:xlink="http://www.w3.org/1999/xlink" x="0px" y="0px"
	 viewBox="0 0 500 500" style="enable-background:new 0 0 500 500;" xml:space="preserve">
<style type="text/css">
	.st0{fill:#0E59A2;}
	.st1{fill:url(#SVGID_1_);}
	.st2{fill:url(#SVGID_00000152249780244534995050000012957632029944576684_);}
	.st3{fill:url(#SVGID_00000180340421197606686850000010085981528561603006_);}
	.st4{fill:url(#SVGID_00000106859086166927512320000015708716365769613460_);}
	.st5{fill:#FFFFFF;}
	.st6{fill:url(#SVGID_00000031173630651391011760000001004631632345826207_);}
	.st7{fill:url(#SVGID_00000065073771419538827200000013902135139352593836_);}
	.st8{fill:url(#SVGID_00000044140561229521149940000008246058439671626672_);}
	.st9{fill:url(#SVGID_00000005959947131990460380000008976548252415974024_);}
	.st10{fill:url(#SVGID_00000093164756736869104560000007800652245143664563_);}
	.st11{fill:url(#SVGID_00000160870695172123463180000006883728456172933002_);}
	.st12{fill:url(#SVGID_00000004524715482011403930000012656679012466993338_);}
	.st13{fill:url(#SVGID_00000013155704204874201750000016458790510224940434_);}
	.st14{fill:url(#SVGID_00000047050108845038563280000001704935212606700459_);}
	.st15{fill:url(#SVGID_00000080914225660373992640000004512501552456330907_);}
	.st16{fill:url(#SVGID_00000120535625402977137690000004732808302494742662_);}
	.st17{fill:url(#SVGID_00000092435469054317334150000002575459320764343950_);}
	.st18{fill:url(#SVGID_00000096025428525327645430000002453082882957601962_);}
	.st19{fill:url(#SVGID_00000085945115496499420980000016357803116024462518_);}
	.st20{fill:url(#SVGID_00000036953134959532802300000002910843873355982524_);}
	.st21{fill:url(#SVGID_00000142141099129825965380000017004709723563345084_);}
</style>
<path class="st0" d="M330.43,108.14H169.58c-33.32,0-60.42,26.48-60.42,59.04v165.64c0,32.55,27.1,59.04,60.42,59.04h160.85
	c33.31,0,60.41-26.48,60.41-59.04V167.18C390.84,134.63,363.74,108.14,330.43,108.14z M308.06,179.55h-35.09
	c0,0-11.14-1.95-11.14,11.14c0,13.09,0,22.83,0,22.83v0.33l46.22-0.33L301.93,250h-40.1v109.43h-47.25V250h-22.64v-35.64l22.64-0.16
	v-0.12v-29.79c0,0,1.03-43.72,40.85-43.72h52.63V179.55z"/>
</svg>
