<?xml version="1.0" encoding="utf-8"?>
<!-- Generator: Adobe Illustrator 27.4.1, SVG Export Plug-In . SVG Version: 6.00 Build 0)  -->
<svg version="1.1" id="Capa_1" xmlns="http://www.w3.org/2000/svg" xmlns:xlink="http://www.w3.org/1999/xlink" x="0px" y="0px"
	 viewBox="0 0 500 500" style="enable-background:new 0 0 500 500;" xml:space="preserve">
<style type="text/css">
	.st0{fill:#0E59A2;}
	.st1{fill:url(#SVGID_1_);}
	.st2{fill:url(#SVGID_00000102510839849469229280000017239034083479502525_);}
	.st3{fill:url(#SVGID_00000078016932441792045930000009722579128079857843_);}
	.st4{fill:url(#SVGID_00000163069442725386565810000004260180925754589372_);}
	.st5{fill:#FFFFFF;}
	.st6{fill:url(#SVGID_00000052826139640816497640000002227655152788151711_);}
	.st7{fill:url(#SVGID_00000003086992894943460090000018000044284183793544_);}
	.st8{fill:url(#SVGID_00000110439932610320017290000015359365994348505520_);}
	.st9{fill:url(#SVGID_00000134211240985271677170000013236130969897887892_);}
	.st10{fill:url(#SVGID_00000065056037602264561960000005614631847258757514_);}
	.st11{fill:url(#SVGID_00000049905938937591852430000012896831885660908450_);}
	.st12{fill:url(#SVGID_00000173860934742447403870000016918648857724929197_);}
	.st13{fill:url(#SVGID_00000176040171964270831160000000194538806674121402_);}
	.st14{fill:url(#SVGID_00000009568292409777966690000018287801082958185652_);}
	.st15{fill:url(#SVGID_00000051353077510155190540000006175528360316833930_);}
	.st16{fill:url(#SVGID_00000115478152587566998610000009522555035621853598_);}
	.st17{fill:url(#SVGID_00000018931638868012721590000007317648593189578925_);}
	.st18{fill:url(#SVGID_00000075872629573509990360000002036549986076799115_);}
	.st19{fill:url(#SVGID_00000176726997964953655550000000448621990615970219_);}
	.st20{fill:url(#SVGID_00000133527700383295173810000006945161652309996955_);}
	.st21{fill:url(#SVGID_00000097495959949362725500000015661431255548953223_);}
</style>
<path class="st0" d="M330.43,108.14H169.58c-33.32,0-60.42,26.48-60.42,59.04v165.64c0,32.55,27.1,59.04,60.42,59.04h160.85
	c33.31,0,60.41-26.48,60.41-59.04V167.18C390.84,134.63,363.74,108.14,330.43,108.14z M199.75,361.84c-2.25,0-4.25,0-6.25,0
	c-9.43,0-18.86,0.01-28.3,0c-3,0-3.69-0.61-4.04-3.53c-0.17-1.45-0.26-2.93-0.26-4.39c-0.01-34.87-0.01-69.73-0.01-104.6
	c0-3.83,1.02-4.81,4.77-4.8c9.59,0.03,19.17,0.03,28.76,0.01c5.5-0.01,5.49-0.04,5.49,5.46c0,36.1,0.02,72.21,0.02,108.31
	C199.92,359.37,199.82,360.44,199.75,361.84z M179.45,229.16c-11.34-0.05-21.29-10.18-20.57-21.88c0.66-10.78,10-20.26,21.08-19.79
	c10.55,0.44,20.57,8.74,20.06,21.41C200.49,220.38,190.15,229.2,179.45,229.16z M340.8,361.65c-0.59,0.06-1.18,0.17-1.76,0.17
	c-10.83,0.01-21.65,0.02-32.48,0.01c-3.41,0-4.18-0.59-4.21-4c-0.18-16.85-0.27-33.7-0.38-50.55c-0.03-5.48,0.36-10.99-0.14-16.43
	c-0.57-6.21-2.8-11.9-8.31-15.63c-2.54-1.72-5.3-2.67-8.47-2.58c-4.84,0.14-9.71-0.44-14.01,2.78c-6.16,4.63-9.99,10.38-9.98,18.32
	c0.02,21.65,0.01,43.3,0,64.95c0,0.98-0.19,1.95-0.29,3.01c-0.97,0.05-1.74,0.12-2.5,0.12c-10.9,0.01-21.81,0.01-32.71,0
	c-3.12,0-3.44-0.32-3.44-3.48c-0.01-37.04-0.01-74.07,0-111.11c0-0.68,0.08-1.36,0.13-2.22c1.7-0.16,3.29-0.43,4.88-0.44
	c9.43-0.04,18.86-0.02,28.3-0.02c0.23,0,0.46,0,0.7,0c4.77,0.09,4.96,0.29,4.95,4.96c-0.01,3.85,0,7.69,0,12.1
	c0.74-1,1.23-1.54,1.6-2.15c6.11-10.21,15.34-15.59,26.91-17.25c11.69-1.68,22.63,0.48,32.57,6.91c8.39,5.43,12.92,13.7,15.95,22.92
	c2.61,7.96,3.01,16.2,3.01,24.5c0,20.49,0.06,40.98,0.07,61.47C341.16,359.18,340.94,360.33,340.8,361.65z"/>
</svg>
