<?xml version="1.0" encoding="utf-8"?>
<!-- Generator: Adobe Illustrator 27.4.1, SVG Export Plug-In . SVG Version: 6.00 Build 0)  -->
<svg version="1.1" id="Capa_1" xmlns="http://www.w3.org/2000/svg" xmlns:xlink="http://www.w3.org/1999/xlink" x="0px" y="0px"
	 viewBox="0 0 500 500" style="enable-background:new 0 0 500 500;" xml:space="preserve">
<style type="text/css">
	.st0{fill:#0E59A2;}
	.st1{fill:#FFFFFF;}
</style>
<circle class="st0" cx="250" cy="250" r="194.19"/>
<g>
	<g>
		<path class="st1" d="M314.49,292.48v-77.26c0-27.72-15.25-52.01-38.15-65.61c-7.52,3.75-29.75,6.46-56.01,6.46
			c-26.27,0-48.5-2.72-56.02-6.46c-22.89,13.6-38.15,37.89-38.15,65.61v77.26c0,42.61,9.66,77.15,95.5,77.15
			C317.18,369.62,314.49,335.09,314.49,292.48z M226.24,202.92c2.52-4.99,6.52-7.98,12.44-8.26c2.58-0.12,5.13,0.12,7.65,0.65
			c0.18,0.04,0.35,0.1,0.6,0.18c-1.15,4.37-2.43,8.68-6.18,11.64c-3.05,2.41-6.66,3.62-10.7,3.04c-2.55-0.37-4.09-1.88-4.38-4.18
			C225.55,204.92,225.76,203.87,226.24,202.92z M198.4,185.78c0.06-0.37,0.2-0.55,0.62-0.45c4.19,0.97,8.21,2.3,11.62,4.93
			c2.61,2.01,3.97,4.76,4.9,7.75c0.62,2,0.83,4.05,0.28,6.09c-0.9,3.3-3.64,4.83-7.1,3.99c-2.82-0.68-5.01-2.32-6.96-4.31
			c-2.6-2.64-3.96-5.77-4.09-9.39c-0.02-0.56-0.06-1.13-0.09-1.69c-0.01-0.22,0-0.44,0-0.67c-0.04-0.01-0.08-0.01-0.12-0.02
			C197.77,189.92,198.09,187.85,198.4,185.78z M266.58,243.39c-0.54,9.95-3.13,19.45-7.22,28.58c-2.18,4.86-4.78,9.5-8.09,13.74
			c-2.23,2.86-4.7,5.51-7.9,7.42c-1.82,1.09-3.75,1.89-5.95,1.7c-0.97-0.08-1.97-0.3-2.84-0.69c-4.22-1.89-8.41-3.82-12.57-5.82
			c-1.18-0.57-2.15-0.57-3.34,0.01c-3.83,1.86-7.78,3.5-11.59,5.41c-3.44,1.72-6.61,1.28-9.74-0.59c-3.22-1.92-5.72-4.57-7.95-7.46
			c-4.81-6.23-8.18-13.17-10.78-20.47c-2.19-6.13-3.69-12.42-4.3-18.88c-0.57-6.13-0.42-12.24,1.43-18.19
			c1.44-4.63,3.49-8.97,6.98-12.56c3.53-3.63,7.88-5.41,13.07-5.32c4.19,0.07,8.12,1.18,11.85,2.9c2.92,1.34,5.72,2.93,8.58,4.4
			c0.7,0.36,1.43,0.67,2.32,1.08c-2.31-7.92-1.43-15.33,2.66-22.49c1.27,0.68,2.48,1.34,3.73,2.01c-3.65,6.43-4.29,13.08-1.98,20.1
			c0.58-0.28,1.11-0.52,1.62-0.78c2.8-1.44,5.56-2.97,8.42-4.3c3.37-1.57,6.93-2.63,10.69-2.88c6.18-0.42,11.29,1.64,15.19,6.26
			c3.65,4.31,5.7,9.34,6.89,14.72C266.62,235.28,266.8,239.33,266.58,243.39z"/>
		<path class="st1" d="M220.34,104.28c-32.45,0-58.75,4.14-58.75,9.26v11.83c0,5.11,26.3,9.26,58.75,9.26
			c32.45,0,58.75-4.14,58.75-9.26v-11.83C279.09,108.43,252.78,104.28,220.34,104.28z"/>
		<path class="st1" d="M220.34,139.7c-32.45,0-58.75-4.14-58.75-9.26v10.29c0,5.11,26.3,9.26,58.75,9.26
			c32.45,0,58.75-4.14,58.75-9.26v-10.29C279.09,135.56,252.78,139.7,220.34,139.7z"/>
	</g>
	<path class="st1" d="M350.44,318.4c13.65,0.08,24.56,12.07,23.29,25.4c-0.41,4.33-2.06,8.19-5.07,11.35
		c-11,11.53-21.93,23.13-33.09,34.51c-6.29,6.41-14.04,7.43-22.27,4.46c-9.28-3.35-16.03-12.85-15.25-23.32
		c0.36-4.8,2.22-8.94,5.56-12.42c8.64-9.01,17.26-18.03,25.89-27.04c2.16-2.26,4.32-4.52,6.49-6.78
		C339.99,320.4,344.93,318.48,350.44,318.4z M369.13,341.78c-1.52,3.63-2.52,5.3-4.23,6.95c-4,3.83-8,7.66-12.04,11.45
		c-3.79,3.55-9.33,3-12.48-1.14c-1.28-1.68-2.6-3.33-4.05-4.86c-3.64-3.87-7.91-6.83-12.96-8.6c-0.46-0.16-0.77-0.16-1.15,0.23
		c-5.16,5.42-10.36,10.8-15.51,16.25c-2.9,3.07-4.23,6.81-3.94,10.99c0.57,8.14,4.85,13.79,12.37,16.67
		c6.21,2.38,12.21,1.54,17.03-3.36c11.62-11.8,23.11-23.73,34.64-35.62c1.41-1.46,2.5-3.14,2.92-5.16
		C370.01,344.29,369.94,343.04,369.13,341.78z M353.51,329.96c-0.09-1.67-1.01-2.45-2.59-2.02c-0.75,0.21-1.51,0.53-2.17,0.96
		c-3.58,2.36-6.21,5.52-7.84,9.48c-0.35,0.84-0.5,1.8-0.52,2.71c-0.03,1.24,0.87,1.95,2.08,1.66c0.89-0.22,1.8-0.55,2.56-1.04
		c3.52-2.28,6.08-5.41,7.75-9.25C353.12,331.67,353.27,330.8,353.51,329.96z"/>
</g>
</svg>
