<?xml version="1.0" encoding="utf-8"?>
<!-- Generator: Adobe Illustrator 27.4.1, SVG Export Plug-In . SVG Version: 6.00 Build 0)  -->
<svg version="1.1" id="Capa_1" xmlns="http://www.w3.org/2000/svg" xmlns:xlink="http://www.w3.org/1999/xlink" x="0px" y="0px"
	 viewBox="0 0 500 500" style="enable-background:new 0 0 500 500;" xml:space="preserve">
<style type="text/css">
	.st0{fill:#0E59A2;}
	.st1{fill:url(#SVGID_1_);}
	.st2{fill:url(#SVGID_00000146490521879054935720000001405668199192361353_);}
	.st3{fill:url(#SVGID_00000172438414588153667810000012426714252838520219_);}
	.st4{fill:url(#SVGID_00000022529788707527465490000018161482422391620771_);}
	.st5{fill:#FFFFFF;}
	.st6{fill:url(#SVGID_00000098907889867778714560000004250164894576766866_);}
	.st7{fill:url(#SVGID_00000183951336640307545250000002563656069296450187_);}
	.st8{fill:url(#SVGID_00000114052259966974237810000015851438757793387190_);}
	.st9{fill:url(#SVGID_00000152962486560740598050000014610194875175281851_);}
	.st10{fill:url(#SVGID_00000017496367891892345300000011001195589809449129_);}
	.st11{fill:url(#SVGID_00000018210596979889610260000000491722962840567204_);}
	.st12{fill:url(#SVGID_00000114069861507622445530000016553593318026494624_);}
	.st13{fill:url(#SVGID_00000098201626254394893280000001000899707610061730_);}
	.st14{fill:url(#SVGID_00000008847936494002044000000016516416913869883306_);}
	.st15{fill:url(#SVGID_00000119079258458843339640000017324465226889383615_);}
	.st16{fill:url(#SVGID_00000043418535299372140760000000322998052711294627_);}
	.st17{fill:url(#SVGID_00000130635508731937684250000011116246358584316036_);}
	.st18{fill:url(#SVGID_00000038377376058600500950000010856873234119229864_);}
	.st19{fill:url(#SVGID_00000142871508835414676120000013381890708549687455_);}
	.st20{fill:url(#SVGID_00000058566572784524233880000010425139819049180346_);}
	.st21{fill:url(#SVGID_00000080925234320344003360000008541390201169829559_);}
</style>
<g>
	<path class="st0" d="M250,200.68c-27.2,0-49.31,22.12-49.31,49.32c0,27.19,22.12,49.32,49.31,49.32c27.2,0,49.32-22.12,49.32-49.32
		C299.32,222.8,277.2,200.68,250,200.68z"/>
	<path class="st0" d="M330.43,108.14H169.58c-33.32,0-60.42,26.48-60.42,59.04v165.64c0,32.55,27.1,59.04,60.42,59.04h160.85
		c33.31,0,60.41-26.48,60.41-59.04V167.18C390.84,134.63,363.74,108.14,330.43,108.14z M250,323.64c-40.6,0-73.63-33.03-73.63-73.64
		c0-40.6,33.04-73.64,73.63-73.64c40.61,0,73.64,33.03,73.64,73.64C323.64,290.6,290.61,323.64,250,323.64z M329.03,189.88
		c-9.51,0-17.22-7.71-17.22-17.23c0-9.51,7.71-17.23,17.22-17.23c9.52,0,17.23,7.71,17.23,17.23
		C346.26,182.17,338.55,189.88,329.03,189.88z"/>
</g>
</svg>
