<?xml version="1.0" encoding="utf-8"?>
<!-- Generator: Adobe Illustrator 27.4.1, SVG Export Plug-In . SVG Version: 6.00 Build 0)  -->
<svg version="1.1" id="Capa_1" xmlns="http://www.w3.org/2000/svg" xmlns:xlink="http://www.w3.org/1999/xlink" x="0px" y="0px"
	 viewBox="0 0 500 500" style="enable-background:new 0 0 500 500;" xml:space="preserve">
<style type="text/css">
	.st0{fill:#0E59A2;}
	.st1{fill:#FFFFFF;}
</style>
<g>
	<circle class="st0" cx="250" cy="250" r="194.19"/>
	<g>
		<path class="st1" d="M135.67,219.37c95.88,0,132.68,0,228.73,0c0,0.99,0,1.97,0,2.96c0,42.22,0,84.43,0,126.65
			c0,8.23-5.35,13.55-13.6,13.55c-86.96,0-115.11,0-202.07,0c-8.51,0-13.05-4.55-13.05-13.03c0-42.22,0-84.44,0-126.65
			C135.67,221.75,135.67,220.64,135.67,219.37z M301.07,291c0.32-27.48-21.85-50.63-49.73-51.12
			c-29.08-0.51-52.03,21.86-52.33,50.47c-0.3,28.46,22.56,51.8,51,51.67C278.89,341.89,301.25,318.67,301.07,291z"/>
		<path class="st1" d="M134.53,208.55c0-6.03-0.22-11.87,0.06-17.68c0.36-7.49,5.8-12.75,13.93-13.8c2.42-0.31,4.88-0.47,7.33-0.47
			c21.89-0.04,14.37-0.02,36.25-0.02c1.11,0,2.22,0,3.6,0c0-5.82,0-11.35,0-16.89c0-4.05-0.04-8.11,0.01-12.16
			c0.07-5.87,4.33-10.06,10.21-10.06c30.47-0.01,60.94,0,91.41,0c6.1,0,10.29,4.08,10.33,10.22c0.07,9.14,0.03,18.27,0.05,27.41
			c0,0.36,0.06,0.73,0.13,1.48c1.13,0,2.22,0,3.31,0c21.04,0,12.67-0.04,33.71,0.03c4.91,0.02,9.72,0.63,13.97,3.56
			c4.11,2.83,6.35,6.73,6.58,11.56c0.26,5.53,0.06,11.09,0.06,16.83C268.94,208.55,231.32,208.55,134.53,208.55z M287.82,157.24
			c-24.21,0-48.24,0-72.19,0c0,6.5,0,12.78,0,19.18c24.11,0,48.09,0,72.19,0C287.82,169.98,287.82,163.7,287.82,157.24z"/>
		<path class="st1" d="M260.86,279.96c7.7,0,15.02,0,22.5,0c0,7.36,0,14.48,0,21.93c-7.32,0-14.71,0-22.36,0c0,7.62,0,14.91,0,22.44
			c-7.35,0-14.44,0-21.81,0c0-7.39,0-14.68,0-22.23c-7.58,0-14.89,0-22.43,0c0-7.42,0-14.6,0-22.03c7.3,0,14.62,0,22.24,0
			c0-7.63,0-15.02,0-22.56c7.42,0,14.53,0,21.86,0C260.86,264.91,260.86,272.2,260.86,279.96z"/>
	</g>
</g>
</svg>
