<?xml version="1.0" encoding="utf-8"?>
<!-- Generator: Adobe Illustrator 27.4.1, SVG Export Plug-In . SVG Version: 6.00 Build 0)  -->
<svg version="1.1" id="Capa_1" xmlns="http://www.w3.org/2000/svg" xmlns:xlink="http://www.w3.org/1999/xlink" x="0px" y="0px"
	 viewBox="0 0 500 500" style="enable-background:new 0 0 500 500;" xml:space="preserve">
<style type="text/css">
	.st0{fill:#0E59A2;}
	.st1{fill:#FFFFFF;}
</style>
<g>
	<circle class="st0" cx="250" cy="250" r="194.19"/>
	<g>
		<path class="st1" d="M246.59,196.26c-1.89-2.48-1.76-4.83-0.37-7.52c4.75-9.18,9.28-18.47,13.91-27.71
			c1.76-3.52,4.74-4.41,8.28-2.6c4.37,2.24,8.77,4.42,13.37,6.73c2.1-4.18,4.14-8.25,6.19-12.31c3.7-7.35,7.33-14.74,11.11-22.04
			c4.19-8.09,14.45-11.42,22.7-7.51c8.68,4.12,12.8,14,8.89,22.47c-4.21,9.13-8.9,18.03-13.38,27.03c-1.31,2.64-2.62,5.28-4.03,8.12
			c4.32,2.18,8.56,4.34,12.83,6.46c4.38,2.17,5.25,4.65,3.05,9.05c-4.65,9.31-9.33,18.61-13.97,27.92c-1.2,2.41-3.16,3.49-5.92,3.36
			c2.5,7.36,2.38,14.46-0.82,21.34c-2.26,4.84-4.75,9.58-7.14,14.35c-8.07,16.09-38.35,76.71-48.43,96.75
			c-2.15,4.27-4.27,8.56-6.42,12.83c-2.47,4.91-7.99,6.73-12.9,4.27c-20.12-10.07-40.25-20.14-60.37-30.22
			c-6.04-3.03-7.78-8.2-4.74-14.23c12.43-24.76,51.22-102.51,61.24-122.42c3.28-6.51,8.5-10.92,15.28-13.51
			C245.46,196.68,245.97,196.49,246.59,196.26z M282.23,236.29c3.41,1.85,8.68,0.89,11.78,2.9c3.25,2.11,1.24,4.84-0.42,8.19
			c-0.28,0.57-45.91,91.89-56.41,112.83c-1.41,2.82-1.57,2.87-4.43,1.43c-16.02-8.06-32.04-16.13-48.09-24.13
			c-1.72-0.86-2.1-1.73-1.21-3.42c2.01-3.79,53.05-105.95,55.03-109.82c3.85,4,8.38,6.24,13.52,7.68
			c4.39-8.76,8.71-17.4,13.13-26.21c-2.32-1.11-4.24-2.46-6.37-2.99c-8.52-2.11-18.12,2.11-22.31,9.93
			c-3.95,7.37-7.56,14.93-11.32,22.4c-10.07,20.04-41.7,83.46-50.46,100.93c-1.18,2.35-0.94,3.41,1.36,4.57
			c7.47,3.78,14.95,7.52,22.43,11.28c12.51,6.28,25.01,12.57,37.52,18.84c2.32,1.16,3.43,0.74,4.58-1.56
			c1.76-3.52,3.51-7.05,5.28-10.57c9.61-19.1,44.55-89.35,55.68-111.06c5.51-10.75,1.02-25.14-10.57-28.58
			C288.03,224.74,285.11,230.57,282.23,236.29z M260.12,233.75c4.53,0.37,8.58,0.75,12.65,0.99c0.56,0.03,1.4-0.51,1.69-1.03
			c1.18-2.08,2.19-4.25,3.26-6.39c2-4.01,3.99-8.02,6.08-12.21c-3.92-1.95-7.64-3.8-11.47-5.71
			C268.21,217.63,264.25,225.52,260.12,233.75z"/>
		<path class="st1" d="M171.61,273.34c-2.52-0.92-3.3-2.25-3.48-4.11c-0.89-9.29,0.11-18.39,2.96-27.26
			c5.13-15.95,14.61-28.65,28.64-37.91c1.57-1.03,3.13-1.21,4.74-0.23c1.48,0.89,2.25,2.32,1.77,3.93c-0.32,1.1-1.12,2.32-2.06,2.95
			c-10.38,6.95-18.13,16.09-23.12,27.53c-4.15,9.52-5.71,19.48-5.02,29.85c0.09,1.43-0.55,3.19-1.46,4.3
			C173.92,273.19,172.24,273.16,171.61,273.34z"/>
		<path class="st1" d="M329.67,304.08c-4.71,14.29-12.96,26.06-25.04,35.1c-0.34,0.25-0.68,0.5-1.03,0.74
			c-2.4,1.61-4.68,1.37-6.14-0.63c-1.42-1.95-0.81-4.25,1.47-5.99c19.35-14.68,27.82-34.14,25.55-58.29
			c-0.28-2.96,0.87-4.93,3.21-5.28c2.56-0.38,4.43,1.31,4.8,4.37C333.74,284.3,332.83,294.29,329.67,304.08z"/>
		<path class="st1" d="M208.48,216.64c0.78,1.07,1.84,2.05,2.27,3.25c0.6,1.67-0.19,3.15-1.6,4.23c-4.16,3.2-7.72,6.94-10.61,11.32
			c-5.51,8.37-8,17.56-7.65,27.56c0.04,1.03-0.05,2.14-0.42,3.08c-0.7,1.78-2.21,2.5-4.09,2.22c-2.08-0.31-3.42-1.63-3.41-3.67
			c0.01-4.13-0.1-8.33,0.56-12.38c2.22-13.66,8.84-24.89,19.56-33.67C205.28,216.8,206.42,216.45,208.48,216.64z"/>
		<path class="st1" d="M316.46,299.44c-3.45,10.18-9.59,18.97-18.44,25.87c-1.44,1.12-2.95,1.71-4.69,0.96
			c-2.92-1.26-3.28-4.95-0.61-7.07c4-3.17,7.52-6.74,10.4-10.96c5.65-8.29,8.23-17.46,8.02-27.45c-0.01-0.49-0.07-0.98-0.07-1.47
			c0.05-2.42,1.57-4.12,3.8-4.25c2.29-0.14,4.03,1.46,4.23,4C319.63,285.87,318.58,292.5,316.46,299.44z"/>
	</g>
</g>
</svg>
