<?xml version="1.0" encoding="utf-8"?>
<!-- Generator: Adobe Illustrator 27.4.1, SVG Export Plug-In . SVG Version: 6.00 Build 0)  -->
<svg version="1.1" id="Capa_1" xmlns="http://www.w3.org/2000/svg" xmlns:xlink="http://www.w3.org/1999/xlink" x="0px" y="0px"
	 viewBox="0 0 500 500" style="enable-background:new 0 0 500 500;" xml:space="preserve">
<style type="text/css">
	.st0{fill:#0E59A2;}
	.st1{fill:#FFFFFF;}
</style>
<g>
	<circle class="st0" cx="250" cy="250" r="194.19"/>
	<g>
		<g>
			<path class="st1" d="M179.75,174.79c-1.98,0-3.9-0.29-5.74-1.01c-2.51-0.97-4.59-2.53-6.16-4.73c-1.47-2.07-2.16-4.38-2.16-6.92
				c0.01-7.71,0-15.42,0-23.14c0-3.58,0.09-7.16-0.02-10.73c-0.18-6.3,4.12-10.87,9.31-12.47c1.39-0.43,2.83-0.66,4.29-0.67
				c0.5,0,1.01,0,1.51,0c34.31,0,68.63,0,102.94-0.01c1.85,0,3.68,0.11,5.47,0.65c2.46,0.74,4.6,2.01,6.32,3.93
				c1.98,2.2,3.07,4.77,3.06,7.76c-0.01,2.01,0,4.02,0,6.04c0,9.39,0.01,18.78-0.01,28.17c0,1.11-0.04,2.25-0.28,3.33
				c-0.62,2.84-2.23,5.09-4.52,6.85c-2.47,1.9-5.3,2.82-8.4,2.94c-0.56,0.02-1.12,0.01-1.68,0.01
				C266.48,174.78,197.18,174.78,179.75,174.79z"/>
			<path class="st1" d="M264.52,280.11c0.06,7.2,0.07,14.23,0.09,21.27c0,0.27-0.08,0.53-0.13,0.9c-3.62,0.18-7.19,0.1-10.75,0.15
				c-3.51,0.05-7.02,0-10.63,0.1c-0.2,1.02-0.09,1.96-0.11,2.89c-0.02,0.89,0.01,1.79,0.01,2.68c0.01,0.95,0.01,1.9,0.02,2.85
				s0.01,1.9,0.02,2.85c0,0.89,0.01,1.79,0.01,2.68c0,0.95,0.01,1.9,0.01,2.85c0,0.89,0.01,1.79,0.01,2.68c0,0.95,0,1.89,0,2.83
				c-0.59,0.48-1.22,0.35-1.81,0.36c-3.52,0.04-7.04,0.05-10.56,0.07c-2.35,0.01-4.7,0.02-7.04,0.03c-0.55,0-1.11,0-1.6,0
				c-0.48-0.64-0.31-1.28-0.32-1.88c-0.05-6.32-0.07-12.63-0.11-18.95c0-0.55-0.03-1.1-0.05-1.58c-0.53-0.45-1.05-0.31-1.54-0.31
				c-5.7,0.05-11.4,0.11-17.1,0.16c-0.94,0.01-1.88,0.06-2.91-0.08c-0.06-0.39-0.14-0.7-0.14-1.02c-0.04-6.65-0.07-13.3-0.09-19.96
				c0-0.38,0.06-0.75,0.11-1.24c2.42-0.11,4.76-0.06,7.09-0.08c2.4-0.02,4.81-0.02,7.21-0.03c2.34-0.01,4.68-0.03,7.13-0.04
				c0.06-0.53,0.14-0.96,0.14-1.38c-0.04-6.48-0.1-12.97-0.15-19.45c0-0.55,0-1.1,0-1.64c0.66-0.4,1.29-0.25,1.88-0.26
				c4.97-0.04,9.95-0.05,14.93-0.07c1.06,0,2.12-0.02,3.19-0.01c0.38,0,0.76,0.06,1.11,0.09c0.39,0.56,0.24,1.14,0.25,1.68
				c0.04,6.32,0.06,12.63,0.1,18.95c0,0.55,0.04,1.1,0.06,1.69c0.63,0.33,1.25,0.22,1.84,0.22c3.63-0.01,7.27-0.05,10.9-0.07
				c2.46-0.01,4.92-0.02,7.38-0.03C263.41,280.04,263.85,280.07,264.52,280.11z"/>
		</g>
		<path class="st1" d="M336.73,306.12c15.99,6.84,22.88,26.35,14.79,41.43c-2.63,4.9-6.47,8.63-11.59,10.87
			c-18.63,8.15-37.23,16.41-55.97,24.3c-10.56,4.45-20.18,1.82-28.38-5.75c-9.25-8.54-12.47-23.05-6.37-35
			c2.8-5.48,7.03-9.43,12.68-11.89c14.61-6.34,29.22-12.7,43.82-19.06c3.66-1.59,7.32-3.19,10.98-4.78
			C323.46,303.31,330.22,303.49,336.73,306.12z M347.11,342.89c-3.59,3.53-5.58,5-8.42,6.09c-6.6,2.53-13.2,5.07-19.82,7.53
			c-6.21,2.31-12.45-1.08-14.1-7.5c-0.67-2.61-1.41-5.21-2.35-7.73c-2.36-6.35-5.91-11.96-10.97-16.53
			c-0.46-0.42-0.83-0.57-1.46-0.3c-8.75,3.84-17.53,7.61-26.27,11.47c-4.92,2.18-8.34,5.94-10.07,11
			c-3.37,9.87-1.13,18.64,6.28,25.75c6.12,5.87,13.58,7.85,21.67,4.46c19.5-8.16,38.91-16.53,58.35-24.84
			c2.38-1.02,4.49-2.46,5.99-4.63C346.9,346.29,347.44,344.77,347.11,342.89z M334.61,321.25c0.72-2.02,0.03-3.38-2.05-3.66
			c-0.99-0.13-2.04-0.12-3.02,0.06c-5.37,1.01-10.04,3.44-13.91,7.29c-0.82,0.82-1.48,1.88-1.95,2.94
			c-0.65,1.45,0.06,2.73,1.62,2.98c1.15,0.19,2.39,0.24,3.53,0.04c5.27-0.95,9.83-3.37,13.69-7.07
			C333.3,323.08,333.91,322.12,334.61,321.25z"/>
		<path class="st1" d="M242.27,337.55c0.1-0.2,0.25-0.37,0.35-0.57c-20.04-0.01-40.08-0.01-60.11-0.01c-0.73,0-1.45,0-2.18,0
			c-1.46-0.01-2.91-0.19-4.29-0.65c-5.05-1.71-8.41-4.97-9.25-10.42c-0.12-0.77-0.1-1.56-0.1-2.34c0-20.41,0-40.81,0-61.22
			c0-1.12-0.06-2.24,0.02-3.35c0.08-1.11,0.19-2.24,0.5-3.3c1.21-4.04,4-6.63,7.83-8.17c1.94-0.78,3.99-1.01,6.08-1.01
			c34.66,0.01,69.32,0.01,103.99,0.01c0.45,0,0.9-0.02,1.34,0.01c2.5,0.13,4.86,0.75,7,2.06c2.99,1.83,5.07,4.38,5.83,7.85
			c0.24,1.08,0.26,2.22,0.27,3.33c0.02,14.2,0.19,34,0.19,48.2c8.7-3.78,17.4-7.56,26.09-11.35c0-18.01-0.18-41.49-0.18-59.4
			c-0.73-0.8-1.44-1.58-2.16-2.36c-12.79-13.76-25.58-27.52-38.36-41.28c-0.34-0.37-0.64-0.8-1.04-1.09
			c-0.43-0.3-0.96-0.47-1.51-0.72c0-1.13,0-2.24,0-3.36c0-0.94,0.01-7.04-0.01-7.97h-98.83c0,1.76,0,8.68,0,10.44
			c0,0.78,0.17,1.64-0.1,2.32c-0.29,0.74-0.96,1.34-1.51,1.97c-11.77,13.4-23.55,26.79-35.32,40.19c-0.55,0.63-1.26,1.22-1.53,1.96
			c-0.28,0.74-0.12,1.65-0.12,2.49c0,37.46,0,74.92,0,112.37c0,0.5,0,1.01,0,1.51c-0.02,2.21,0.41,4.34,1.22,6.38
			c2.08,5.31,5.85,9.05,10.92,11.52c3.37,1.64,6.95,2.38,10.7,2.38c23.94-0.01,49.63-0.01,73.56-0.01
			C237.66,362.34,236.32,349.2,242.27,337.55z"/>
	</g>
</g>
</svg>
