<?xml version="1.0" encoding="utf-8"?>
<!-- Generator: Adobe Illustrator 27.4.1, SVG Export Plug-In . SVG Version: 6.00 Build 0)  -->
<svg version="1.1" id="Capa_1" xmlns="http://www.w3.org/2000/svg" xmlns:xlink="http://www.w3.org/1999/xlink" x="0px" y="0px"
	 viewBox="0 0 500 500" style="enable-background:new 0 0 500 500;" xml:space="preserve">
<style type="text/css">
	.st0{fill:#0E59A2;}
	.st1{fill:#FFFFFF;}
</style>
<g>
	<circle class="st0" cx="250" cy="250" r="194.19"/>
	<g>
		<g>
			<path class="st1" d="M141.65,128.27c0-6.56,2.91-11.71,9.08-15.28c2.95-1.7,6.22-2.53,9.74-2.53c17.95,0,56.45-0.01,74.4,0
				c9.97,0.01,18.29,7.13,18.84,16.1c0.03,0.51,0.04,1.03,0.04,1.54c0,68.11-10.27,136.23-10.28,204.34
				c0,7.86-5.02,14.38-13.06,16.69c-2.06,0.59-4.32,0.88-6.49,0.89c-17.46,0.07-34.92,0.06-52.38,0.03
				c-11.36-0.01-19.62-7.47-19.62-17.67C151.92,298.35,141.65,162.27,141.65,128.27z"/>
			<path class="st1" d="M173.18,353.7c17.17,0,34.23,0,51.46,0c0,0.45,0,0.84,0,1.22c0,6.67,0,13.34,0,20.01
				c0,2.21-0.92,3.04-3.41,3.04c-14.96,0-29.93,0.01-44.89,0c-2.17,0-3.23-0.82-3.23-2.63c-0.02-7-0.01-14,0-21
				C173.1,354.17,173.14,353.99,173.18,353.7z"/>
		</g>
		<path class="st1" d="M352.83,282.47c-3.98-6.01-9.59-10.62-17.29-13.2c-3.56-1.19-7.26-2.1-10.9-3.12
			c-2.53-0.71-3.11-1.36-3.11-3.6c0-0.4,0-0.81,0-1.21c1.64,0,3.28,0,4.93,0c0-2.19,0-4.31,0-6.43c0-1.51-0.83-2.21-2.61-2.21
			c-3.93,0-7.85,0-11.78,0c0-4.46,0-9.68,0-14.28c1.73-0.06,3.51-0.1,5.4-0.11c9.84-0.04,18.03,1.47,25.53,3.48
			c0.76,0.1,1.06-0.1,1.2-0.65c0.29-1.12,0.71-7.06,0.96-8.19c0.27-1.23-0.1-1.64-1.58-1.83c-4.89-1.64-13.83-2.91-23.56-3.25
			c-9.93-0.34-19.31,0.27-31.42,2.87c-1.07,0.13-1.58,0.57-1.44,1.3c0.25,1.28,2.82,6.9,3.14,8.17c0.14,0.57,1.12,0.94,1.92,0.84
			c2.31-0.55,4.48-0.99,6.59-1.35c0,4.21,0,8.95,0,13c-3.95,0-7.9,0-11.85,0c-1.67,0-2.55,0.71-2.57,2.11c-0.02,2-0.01,3.99,0,5.99
			c0,0.17,0.04,0.34,0.07,0.55c1.62,0,3.24,0,4.85,0c0,0.52,0,1.05,0,1.56c0,1.75-0.69,2.56-2.65,3.11c-2.85,0.8-5.7,1.61-8.56,2.38
			c-4.25,1.13-8.18,2.8-11.51,5.3c-10.96,8.21-15.13,18.65-13.8,30.71c0.47,4.24,1.63,8.42,2.53,12.62
			c3.82,17.86,7.65,35.72,11.5,53.58c0.3,1.37,0.6,2.78,1.26,4.03c1.06,2.02,2.95,3.33,5.75,3.34c21.05,0.01,42.11,0,63.16,0.01
			c1.5,0,2.8-0.43,3.92-1.24c1.46-1.05,2.32-2.41,2.66-3.97c2.17-10.02,4.31-20.05,6.47-30.07c2.48-11.57,4.93-23.15,7.47-34.71
			C359.46,299.01,358.14,290.47,352.83,282.47z M305.34,339.24c-19.16,0-34.7-11.23-34.7-25.08c0-13.85,15.53-25.08,34.7-25.08
			c19.16,0,34.7,11.23,34.7,25.08C340.04,328.01,324.5,339.24,305.34,339.24z"/>
	</g>
</g>
</svg>
