<?xml version="1.0" encoding="utf-8"?>
<!-- Generator: Adobe Illustrator 27.4.1, SVG Export Plug-In . SVG Version: 6.00 Build 0)  -->
<svg version="1.1" id="Capa_1" xmlns="http://www.w3.org/2000/svg" xmlns:xlink="http://www.w3.org/1999/xlink" x="0px" y="0px"
	 viewBox="0 0 500 500" style="enable-background:new 0 0 500 500;" xml:space="preserve">
<style type="text/css">
	.st0{fill:#0E59A2;}
	.st1{fill:#FFFFFF;}
</style>
<circle class="st0" cx="250" cy="250" r="194.19"/>
<g>
	<path class="st1" d="M225.58,266.36v-0.26c0-5.82-3.34-10.22-8.22-10.22c-4.86,0-8.07,4.27-8.07,10.1v0.26
		c0,5.7,3.61,10.1,8.22,10.1C222.38,276.33,225.58,272.06,225.58,266.36z"/>
	<path class="st1" d="M282.49,300.27c-5.01,0-8.07,4.27-8.07,10.1v0.26c0,5.7,3.61,10.1,8.2,10.1c4.87,0,8.08-4.27,8.08-9.97v-0.26
		C290.71,304.67,287.36,300.27,282.49,300.27z"/>
	<path class="st1" d="M333.49,183.38v-32.95c0-11.82-10.3-21.41-23.02-21.41H189.52c-12.71,0-23.02,9.58-23.02,21.41v32.95
		l11.52,9.93c2.65,2.29,2.65,6.19,0,8.48l-11.52,9.93v137.86c0,11.82,10.3,21.41,23.02,21.41h120.95c12.71,0,23.02-9.58,23.02-21.41
		V211.71l-9.01-7.77c-4-3.45-4-9.34,0-12.79L333.49,183.38z M273.66,194.94h15.78c0.65,0,1.18,1.57,1.18,3.5s-0.53,3.5-1.18,3.5
		h-15.78c-0.65,0-1.18-1.57-1.18-3.5S273.01,194.94,273.66,194.94z M242.11,194.94h15.77c0.65,0,1.18,1.57,1.18,3.5
		s-0.53,3.5-1.18,3.5h-15.77c-0.65,0-1.18-1.57-1.18-3.5S241.46,194.94,242.11,194.94z M210.56,194.94h15.78
		c0.65,0,1.18,1.57,1.18,3.5s-0.53,3.5-1.18,3.5h-15.78c-0.65,0-1.18-1.57-1.18-3.5S209.91,194.94,210.56,194.94z M187.72,201.94
		c-0.65,0-1.18-1.57-1.18-3.5s0.53-3.5,1.18-3.5h7.07c0.65,0,1.18,1.57,1.18,3.5s-0.53,3.5-1.18,3.5H187.72z M192.32,266.36v-0.26
		c0-13.33,10.02-24.33,25.19-24.33c15.02,0,25.04,10.74,25.04,24.2v0.26c0,13.07-10.15,24.2-25.19,24.2
		C202.47,290.44,192.32,279.56,192.32,266.36z M221.81,333.67h-18.78l41.04-48.8l34.1-41.81h18.79l-41.46,49.32L221.81,333.67z
		 M307.68,310.63c0,13.2-10.16,24.33-25.19,24.33c-15.03,0-25.05-11.13-25.05-24.21v-0.26c0-13.33,10.03-24.33,25.19-24.33
		c15.04,0,25.05,10.74,25.05,24.2V310.63z M312.28,201.94h-7.07c-0.65,0-1.18-1.57-1.18-3.5s0.53-3.5,1.18-3.5h7.07
		c0.65,0,1.18,1.57,1.18,3.5S312.93,201.94,312.28,201.94z"/>
</g>
</svg>
