<?xml version="1.0" encoding="utf-8"?>
<!-- Generator: Adobe Illustrator 27.4.1, SVG Export Plug-In . SVG Version: 6.00 Build 0)  -->
<svg version="1.1" id="Capa_1" xmlns="http://www.w3.org/2000/svg" xmlns:xlink="http://www.w3.org/1999/xlink" x="0px" y="0px"
	 viewBox="0 0 500 500" style="enable-background:new 0 0 500 500;" xml:space="preserve">
<style type="text/css">
	.st0{fill:#0E59A2;}
	.st1{fill:#FFFFFF;}
</style>
<circle class="st0" cx="250" cy="250" r="194.19"/>
<g>
	<path class="st1" d="M323.92,224.79c35.84,3.8,60.92,37.98,56.16,73.14c-4.38,32.42-32.24,56.66-64.93,56.29
		c-33.57-0.38-60.63-25.1-63.99-58.82c-3.25-32.61,18.85-63.76,53.84-70.04c0.28-15.2,0.56-30.46,0.85-46.38
		c-7.87,7.87-15.29,15.29-22.84,22.84c-4.27-4.27-8.36-8.36-12.56-12.56c14.48-14.48,28.92-28.92,43.48-43.48
		c14.06,14.06,28.08,28.08,42.24,42.24c-3.92,3.92-7.85,7.85-11.98,11.98c-6.95-6.95-13.79-13.79-20.63-20.63
		c-0.19,0.07-0.38,0.14-0.56,0.21C323.3,194.62,323.61,209.65,323.92,224.79z M348.93,255.96c-18.38-18.3-48.19-18.2-66.58,0.21
		c-18.22,18.25-18.16,48.19,0,66.42c18.34,18.41,47.94,17.96,65.89,0.8C367.1,305.37,367.83,274.7,348.93,255.96z"/>
	<path class="st1" d="M193.44,272.95c0.02,2.88,0.03,37.62,0.05,40.7c0.97-0.01,1.82-0.01,2.68-0.01
		c10.55-0.05,21.11-0.01,31.66-0.22c2.57-0.05,3.13,0.75,3.06,3.14c-0.15,4.84,0,9.69,0.02,14.81c-12.57,0.07-24.87,0.13-37.4,0.2
		c0.04,8.43,0.09,16.58,0.13,24.9c-6.13,0.03-12.02,0.06-18.19,0.1c-0.04-8.19-0.09-16.33-0.13-24.81
		c-12.63,0.07-24.99,0.13-37.53,0.2c-0.03-6.12-0.06-11.9-0.09-17.92c12.39-0.07,24.7-0.13,37.21-0.2
		c-0.02-3.09-0.03-37.98-0.05-40.96c-20.08-3.63-35.85-13.8-46.43-31.38c-8.09-13.44-10.64-28.06-8.2-43.54
		c4.78-30.38,31.74-55.41,65.8-54.47c34.98,0.97,60.34,27.97,63.21,59.09C252.31,235.83,229.16,267.44,193.44,272.95z
		 M231.62,208.31c-0.1-26.03-21.33-47.08-47.43-47.01c-25.81,0.07-47.17,21.53-47,47.24c0.17,25.64,20.48,46.54,46.13,47.1
		C210.61,256.24,231.74,234.17,231.62,208.31z"/>
</g>
</svg>
