<?xml version="1.0" encoding="utf-8"?>
<!-- Generator: Adobe Illustrator 22.1.0, SVG Export Plug-In . SVG Version: 6.00 Build 0)  -->
<svg version="1.1" id="Capa_1" xmlns="http://www.w3.org/2000/svg" xmlns:xlink="http://www.w3.org/1999/xlink" x="0px" y="0px"
	 viewBox="0 0 708.7 99.2" style="enable-background:new 0 0 708.7 99.2;" xml:space="preserve">
<style type="text/css">
	.st0{fill:url(#SVGID_1_);}
	.st1{fill:#FFFFFF;}
	.st2{fill:url(#SVGID_2_);}
	.st3{fill:url(#SVGID_3_);}
	.st4{fill:url(#SVGID_4_);}
	.st5{fill:url(#SVGID_5_);}
	.st6{fill:url(#SVGID_6_);}
	.st7{fill:url(#SVGID_7_);}
	.st8{fill:url(#SVGID_8_);}
	.st9{fill:url(#SVGID_9_);}
	.st10{fill:url(#SVGID_10_);}
	.st11{fill:url(#SVGID_11_);}
	.st12{fill:url(#SVGID_12_);}
	.st13{fill:url(#SVGID_13_);}
	.st14{fill:url(#SVGID_14_);}
	.st15{fill:url(#SVGID_15_);}
	.st16{fill:url(#SVGID_16_);}
	.st17{fill:url(#SVGID_17_);}
	.st18{fill:url(#SVGID_18_);}
	.st19{fill:url(#SVGID_19_);}
	.st20{fill:url(#SVGID_20_);}
	.st21{fill:url(#SVGID_21_);}
	.st22{fill:url(#SVGID_22_);}
	.st23{fill:url(#SVGID_23_);}
	.st24{fill:url(#SVGID_24_);}
	.st25{fill:url(#SVGID_25_);}
	.st26{fill:url(#SVGID_26_);}
	.st27{fill:url(#SVGID_27_);}
	.st28{fill:url(#SVGID_28_);}
	.st29{fill:url(#SVGID_29_);}
	.st30{fill:url(#SVGID_30_);}
	.st31{fill:url(#SVGID_31_);}
	.st32{fill:url(#SVGID_32_);}
	.st33{fill:url(#SVGID_33_);}
	.st34{fill:url(#SVGID_34_);}
	.st35{fill:url(#SVGID_35_);}
	.st36{fill:url(#SVGID_36_);}
	.st37{fill:url(#SVGID_37_);}
</style>
<linearGradient id="SVGID_1_" gradientUnits="userSpaceOnUse" x1="-1269.6693" y1="-256.3937" x2="-1269.6693" y2="355.6063">
	<stop  offset="0" style="stop-color:#4A0C0D"/>
	<stop  offset="1" style="stop-color:#911F1D"/>
</linearGradient>
<rect x="-1665.7" y="-256.4" class="st0" width="792" height="612"/>
<g>
	
		<image style="overflow:visible;opacity:0.75;" width="2783" height="662" xlink:href="2B3720EC.png"  transform="matrix(0.24 0 0 0.24 -1603.6293 -19.8737)">
	</image>
	<g>
		<g>
			<g>
				<path class="st1" d="M-1588.6-13.5h22c21.5,0,36.4,14.9,36.4,34.1v0.2c0,19.3-14.9,34.1-36.4,34.1h-22V-13.5z M-1586.4-11.5V53
					h19.9c20.1,0,34.1-14.2,34.1-32.1v-0.2c0-18-14.1-32.3-34.3-32.3H-1586.4z"/>
				<path class="st1" d="M-1519.5-13.5h3.3V55h-3.3V-13.5z"/>
				<path class="st1" d="M-1502-13.5h4.8l27.5,40.5l27.5-40.5h4.8V55h-5.1V-4.5l-27.1,39.4h-0.4l-27.1-39.4V55h-4.9V-13.5z"/>
				<path class="st1" d="M-1399.3-14h7.2l31.2,68.9h-8.3l-8-18.1h-37.3l-8.1,18.1h-7.9L-1399.3-14z M-1380.3,29.8L-1395.8-5
					l-15.6,34.8H-1380.3z"/>
				<path class="st1" d="M-1355.3-13.5h31.3c8.7,0,15.3,2.3,20,6.9c3.9,3.9,5.9,9.1,5.9,15.6v0.2c0,5.5-1.4,10.1-4.1,13.5
					c-2.7,3.5-6.2,6-10.6,7.7l16.7,24.5h-17.6l-14.7-21.9h-0.2h-11.6V55h-15.1V-13.5z M-1325,19.8c3.7,0,6.6-0.9,8.6-2.6
					c2-1.8,3-4.1,3-7V9.9c0-3.3-1-5.7-3.1-7.3c-2.1-1.6-5-2.4-8.7-2.4h-15v19.7H-1325z"/>
				<path class="st1" d="M-1290.5-13.5h15.1v29.9l27.8-29.9h18.2l-27.9,29l29.1,39.4h-18.1l-21.2-29.1l-7.9,8.2V55h-15.1V-13.5z"/>
				<path class="st1" d="M-1225.4-13.5h51.5v13.4h-36.7v13.9h32.3v13.4h-32.3v14.4h37.2V55h-52V-13.5z"/>
				<path class="st1" d="M-1150.1,0.4h-20.8v-13.9h56.7V0.4h-20.8V55h-15.1V0.4z"/>
				<path class="st1" d="M-1110-13.5h15.1V55h-15.1V-13.5z"/>
				<path class="st1" d="M-1084-13.5h13.9l32.1,42.2v-42.2h14.9V55h-12.8l-33.2-43.5V55h-14.9V-13.5z"/>
				<path class="st1" d="M-980,56.2c-5.3,0-10.2-0.9-14.6-2.6c-4.4-1.8-8.2-4.2-11.3-7.3c-3.2-3.1-5.6-6.8-7.4-11.1
					c-1.8-4.3-2.6-9-2.6-14.1v-0.2c0-4.9,0.9-9.5,2.7-13.7c1.8-4.3,4.3-8,7.5-11.2c3.2-3.2,7-5.8,11.3-7.6c4.4-1.9,9.2-2.8,14.4-2.8
					c3.1,0,5.9,0.2,8.4,0.6c2.5,0.4,4.8,1,7,1.8c2.2,0.8,4.2,1.8,6.1,2.9c1.9,1.2,3.7,2.5,5.5,4l-9.5,11.4c-1.3-1.1-2.6-2.1-3.9-2.9
					c-1.3-0.8-2.7-1.6-4.1-2.2c-1.4-0.6-2.9-1-4.5-1.4c-1.6-0.3-3.4-0.5-5.4-0.5c-2.7,0-5.3,0.6-7.7,1.7c-2.4,1.1-4.5,2.7-6.3,4.6
					c-1.8,1.9-3.2,4.2-4.2,6.8c-1,2.6-1.5,5.3-1.5,8.3v0.2c0,3.1,0.5,6,1.5,8.7c1,2.6,2.4,5,4.3,6.9c1.9,2,4,3.5,6.6,4.6
					c2.5,1.1,5.3,1.6,8.4,1.6c5.6,0,10.3-1.4,14.2-4.1v-9.8h-15.2v-13h29.7v29.7c-3.5,3-7.7,5.6-12.6,7.7
					C-968.2,55.1-973.8,56.2-980,56.2z"/>
			</g>
			<g>
				<path class="st1" d="M-1510.4,88.8v-0.5l24.3-12.4v1.2l-22.6,11.5l22.6,11.5v1.2L-1510.4,88.8z"/>
				<path class="st1" d="M-1469.9,70.2h1.2l11.6,35.4l11.2-35.5h0.9l11.3,35.5l11.6-35.4h1.2l-12.3,37.2h-1l-11.2-35.2l-11.2,35.2
					h-1L-1469.9,70.2z"/>
				<path class="st1" d="M-1415.7,70.2h25.8v1.1h-24.7V88h22.4v1.1h-22.4v17h24.9v1.1h-26.1V70.2z"/>
				<path class="st1" d="M-1383.4,70.2h15.2c4.3,0,7.7,1.1,9.7,3.2c1.5,1.5,2.4,3.6,2.4,6.1v0.1c0,4.5-2.9,7.8-7.1,8.7
					c5.1,0.7,9.1,4.2,9.1,9.2v0.1c0,6.1-4.9,9.6-13.2,9.6h-16V70.2z M-1357.3,79.5c0-5-4.1-8.3-11-8.3h-13.9v16.7h14.8
					c5.5,0,10.1-2.6,10.1-8.3V79.5z M-1366.5,88.9h-15.7v17.1h14.8c7.6,0,12-3.1,12-8.4v-0.1C-1355.4,91.9-1360.4,88.9-1366.5,88.9z
					"/>
				<path class="st1" d="M-1314.9,100.8c-3.4,4.2-7.6,6.8-12.5,6.8c-6.5,0-10.9-4.4-10.9-9.6V98c0-6.2,5.1-9,10.2-11.4
					c-3.7-3.9-5-6.7-5-9.3v-0.1c0-3.6,3-7.7,8.4-7.7c5,0,8.2,3.7,8.2,7.4v0.1c0,3.9-2.4,6.6-9.8,9.9l11.4,12.3
					c2-2.9,3.6-6.1,5.2-10.3l1,0.3c-1.5,4.2-3.3,7.8-5.5,10.8l6.4,7l-0.8,0.7L-1314.9,100.8z M-1315.6,100.1l-11.8-12.7
					c-5,2.3-9.8,4.7-9.8,10.6v0.1c0,4.5,3.9,8.5,9.8,8.5C-1322.8,106.6-1318.7,104-1315.6,100.1z M-1317.7,77.1V77
					c0-3.2-2.7-6.4-7.1-6.4c-4.6,0-7.3,3.4-7.3,6.6v0.1c0,2.5,1.2,5.2,4.9,9C-1319.9,83-1317.7,80.6-1317.7,77.1z"/>
				<path class="st1" d="M-1291,70.2h11.9c11.6,0,19.6,8,19.6,18.4v0.1c0,10.4-8,18.4-19.6,18.4h-11.9V70.2z M-1289.8,71.2v34.8
					h10.8c10.9,0,18.4-7.7,18.4-17.3v-0.1c0-9.7-7.6-17.4-18.5-17.4H-1289.8z"/>
				<path class="st1" d="M-1252.4,70.2h1.2v37h-1.2V70.2z"/>
				<path class="st1" d="M-1244.9,101.7l0.8-0.8c3.7,3.6,8.5,5.7,13.9,5.7c6.9,0,11.4-3.7,11.4-8.7v-0.1c0-4.5-2.7-7-12.1-8.9
					c-9.1-1.8-12.6-4.5-12.6-9.7v-0.1c0-5.2,5.1-9.5,12-9.5c4.9,0,9.2,1.6,12.6,4.2l-0.7,1c-3.3-2.5-7.4-4.1-11.9-4.1
					c-6.5,0-10.8,4-10.8,8.3v0.1c0,4.5,2.9,6.9,11.9,8.7c9.6,2,12.8,4.9,12.8,9.9v0.1c0,5.5-4.8,9.8-12.6,9.8
					C-1235.9,107.6-1240.9,105.5-1244.9,101.7z"/>
				<path class="st1" d="M-1211.3,70.2h25.8v1.1h-24.7V88h22.4v1.1h-22.4v17h24.9v1.1h-26.1V70.2z"/>
				<path class="st1" d="M-1179,70.2h1l28.1,35.1V70.2h1.1v37h-1l-28.1-35.1v35.1h-1.1V70.2z M-1163.7,64.9
					c-1.2-0.7-2.3-1.3-3.1-1.3c-1.3,0-2.2,0.7-3,3l-0.7-0.2c0.6-2.7,2.1-3.9,3.8-3.9c1.2,0,2.4,0.7,3.7,1.5c1.2,0.7,2.3,1.3,3.1,1.3
					c1.3,0,2.2-0.7,3-3l0.7,0.2c-0.6,2.7-2.1,3.9-3.8,3.9C-1161.1,66.4-1162.4,65.7-1163.7,64.9z"/>
				<path class="st1" d="M-1142.1,88.7v-0.1c0-10.1,7.2-19.1,18.4-19.1s18.4,9,18.4,19.1v0.1c0,10.1-7.2,19.1-18.4,19.1
					S-1142.1,98.8-1142.1,88.7z M-1106.5,88.7v-0.1c0-9.5-7-18.1-17.3-18.1c-10.3,0-17.2,8.4-17.2,18v0.1c0,9.5,7,18.1,17.3,18.1
					C-1113.3,106.7-1106.5,98.2-1106.5,88.7z"/>
				<path class="st1" d="M-1068.1,65h1.2l-24.8,48.9h-1.2L-1068.1,65z"/>
				<path class="st1" d="M-1053.2,100l22.6-11.5l-22.6-11.5v-1.2l24.3,12.4v0.5l-24.3,12.4V100z"/>
			</g>
		</g>
	</g>
</g>
<g>
	
		<image style="overflow:visible;opacity:0.75;" width="2784" height="662" xlink:href="2B3720ED.png"  transform="matrix(0.24 0 0 0.24 -791.7093 -109.8737)">
	</image>
	<g>
		<g>
			<linearGradient id="SVGID_2_" gradientUnits="userSpaceOnUse" x1="-747.3745" y1="-103.4764" x2="-747.3745" y2="-35.0191">
				<stop  offset="0" style="stop-color:#4A0C0D"/>
				<stop  offset="1" style="stop-color:#911F1D"/>
			</linearGradient>
			<path class="st2" d="M-754.6-103.5h-22V-35h22c21.5,0,36.4-14.9,36.4-34.1v-0.2C-718.2-88.6-733-103.5-754.6-103.5z M-720.3-69.1
				c0,17.9-14,32.1-34.1,32.1h-19.9v-64.5h19.8c20.2,0,34.3,14.3,34.3,32.3V-69.1z"/>
			<linearGradient id="SVGID_3_" gradientUnits="userSpaceOnUse" x1="-705.8467" y1="-103.4764" x2="-705.8467" y2="-35.0191">
				<stop  offset="0" style="stop-color:#4A0C0D"/>
				<stop  offset="1" style="stop-color:#911F1D"/>
			</linearGradient>
			<rect x="-707.5" y="-103.5" class="st3" width="3.3" height="68.5"/>
			<linearGradient id="SVGID_4_" gradientUnits="userSpaceOnUse" x1="-657.7102" y1="-103.4764" x2="-657.7102" y2="-35.0191">
				<stop  offset="0" style="stop-color:#4A0C0D"/>
				<stop  offset="1" style="stop-color:#911F1D"/>
			</linearGradient>
			<polygon class="st4" points="-630.5,-94.5 -630.5,-35 -625.4,-35 -625.4,-103.5 -630.2,-103.5 -657.7,-63 -685.2,-103.5 
				-690,-103.5 -690,-35 -685.1,-35 -685.1,-94.5 -658,-55.1 -657.6,-55.1 			"/>
			<linearGradient id="SVGID_5_" gradientUnits="userSpaceOnUse" x1="-583.7033" y1="-103.965" x2="-583.7033" y2="-35.0191">
				<stop  offset="0" style="stop-color:#4A0C0D"/>
				<stop  offset="1" style="stop-color:#911F1D"/>
			</linearGradient>
			<path class="st5" d="M-602.5-53.1h37.3l8,18.1h8.3l-31.2-68.9h-7.2L-618.5-35h7.9L-602.5-53.1z M-583.8-95l15.6,34.8h-31.2
				L-583.8-95z"/>
			<linearGradient id="SVGID_6_" gradientUnits="userSpaceOnUse" x1="-513.7147" y1="-103.4811" x2="-513.7147" y2="-35.0191">
				<stop  offset="0" style="stop-color:#4A0C0D"/>
				<stop  offset="1" style="stop-color:#911F1D"/>
			</linearGradient>
			<path class="st6" d="M-490.2-67.1c2.7-3.5,4.1-8,4.1-13.5v-0.2c0-6.5-2-11.7-5.9-15.6c-4.6-4.6-11.3-6.9-20-6.9h-31.3V-35h15.1
				v-21.9h11.6h0.2l14.7,21.9h17.6l-16.7-24.5C-496.5-61.1-492.9-63.7-490.2-67.1z M-501.4-79.9c0,2.9-1,5.3-3,7
				c-2,1.8-4.8,2.6-8.6,2.6h-15.3v-19.7h15c3.7,0,6.6,0.8,8.7,2.4c2.1,1.6,3.1,4.1,3.1,7.3V-79.9z"/>
			<linearGradient id="SVGID_7_" gradientUnits="userSpaceOnUse" x1="-447.3566" y1="-103.4811" x2="-447.3566" y2="-35.0191">
				<stop  offset="0" style="stop-color:#4A0C0D"/>
				<stop  offset="1" style="stop-color:#911F1D"/>
			</linearGradient>
			<polygon class="st7" points="-445.4,-74.4 -417.5,-103.5 -435.7,-103.5 -463.4,-73.6 -463.4,-103.5 -478.5,-103.5 -478.5,-35 
				-463.4,-35 -463.4,-55.9 -455.5,-64.2 -434.3,-35 -416.2,-35 			"/>
			<linearGradient id="SVGID_8_" gradientUnits="userSpaceOnUse" x1="-387.3452" y1="-103.4811" x2="-387.3452" y2="-35.0191">
				<stop  offset="0" style="stop-color:#4A0C0D"/>
				<stop  offset="1" style="stop-color:#911F1D"/>
			</linearGradient>
			<polygon class="st8" points="-361.3,-48.4 -398.5,-48.4 -398.5,-62.8 -366.2,-62.8 -366.2,-76.2 -398.5,-76.2 -398.5,-90.1 
				-361.8,-90.1 -361.8,-103.5 -413.4,-103.5 -413.4,-35 -361.3,-35 			"/>
			<linearGradient id="SVGID_9_" gradientUnits="userSpaceOnUse" x1="-330.6098" y1="-103.4811" x2="-330.6098" y2="-35.0191">
				<stop  offset="0" style="stop-color:#4A0C0D"/>
				<stop  offset="1" style="stop-color:#911F1D"/>
			</linearGradient>
			<polygon class="st9" points="-338.1,-35 -323.1,-35 -323.1,-89.6 -302.2,-89.6 -302.2,-103.5 -359,-103.5 -359,-89.6 
				-338.1,-89.6 			"/>
			<linearGradient id="SVGID_10_" gradientUnits="userSpaceOnUse" x1="-290.4724" y1="-103.4811" x2="-290.4724" y2="-35.0191">
				<stop  offset="0" style="stop-color:#4A0C0D"/>
				<stop  offset="1" style="stop-color:#911F1D"/>
			</linearGradient>
			<rect x="-298" y="-103.5" class="st10" width="15.1" height="68.5"/>
			<linearGradient id="SVGID_11_" gradientUnits="userSpaceOnUse" x1="-241.5813" y1="-103.4811" x2="-241.5813" y2="-35.0191">
				<stop  offset="0" style="stop-color:#4A0C0D"/>
				<stop  offset="1" style="stop-color:#911F1D"/>
			</linearGradient>
			<polygon class="st11" points="-226,-61.3 -258.1,-103.5 -272,-103.5 -272,-35 -257.1,-35 -257.1,-78.5 -224,-35 -211.2,-35 
				-211.2,-103.5 -226,-103.5 			"/>
			<linearGradient id="SVGID_12_" gradientUnits="userSpaceOnUse" x1="-171.3885" y1="-104.655" x2="-171.3885" y2="-33.8452">
				<stop  offset="0" style="stop-color:#4A0C0D"/>
				<stop  offset="1" style="stop-color:#911F1D"/>
			</linearGradient>
			<path class="st12" d="M-168.5-74.4v13h15.2v9.8c-3.8,2.8-8.6,4.1-14.2,4.1c-3.1,0-5.9-0.5-8.4-1.6c-2.5-1.1-4.7-2.6-6.6-4.6
				c-1.9-2-3.3-4.3-4.3-6.9c-1-2.6-1.5-5.5-1.5-8.7v-0.2c0-2.9,0.5-5.7,1.5-8.3c1-2.6,2.4-4.8,4.2-6.8c1.8-1.9,3.9-3.5,6.3-4.6
				c2.4-1.1,4.9-1.7,7.7-1.7c2,0,3.7,0.2,5.4,0.5c1.6,0.3,3.1,0.8,4.5,1.4c1.4,0.6,2.8,1.3,4.1,2.2c1.3,0.8,2.6,1.8,3.9,2.9
				l9.5-11.4c-1.8-1.5-3.6-2.8-5.5-4c-1.9-1.2-3.9-2.2-6.1-2.9c-2.2-0.8-4.5-1.4-7-1.8c-2.5-0.4-5.3-0.6-8.4-0.6
				c-5.2,0-10,0.9-14.4,2.8c-4.4,1.9-8.2,4.4-11.3,7.6c-3.2,3.2-5.7,7-7.5,11.2c-1.8,4.3-2.7,8.9-2.7,13.7v0.2
				c0,5.1,0.9,9.8,2.6,14.1c1.8,4.3,4.2,8,7.4,11.1c3.2,3.1,6.9,5.6,11.3,7.3c4.4,1.8,9.3,2.6,14.6,2.6c6.3,0,11.8-1.1,16.7-3.2
				c4.9-2.1,9-4.7,12.6-7.7v-29.7H-168.5z"/>
			<linearGradient id="SVGID_13_" gradientUnits="userSpaceOnUse" x1="-686.2463" y1="-14.1465" x2="-686.2463" y2="11.1953">
				<stop  offset="0" style="stop-color:#4A0C0D"/>
				<stop  offset="1" style="stop-color:#911F1D"/>
			</linearGradient>
			<polygon class="st13" points="-698.4,-1.2 -674.1,11.2 -674.1,10 -696.7,-1.5 -674.1,-12.9 -674.1,-14.1 -698.4,-1.7 			"/>
			<linearGradient id="SVGID_14_" gradientUnits="userSpaceOnUse" x1="-633.3715" y1="-19.9545" x2="-633.3715" y2="17.373">
				<stop  offset="0" style="stop-color:#4A0C0D"/>
				<stop  offset="1" style="stop-color:#911F1D"/>
			</linearGradient>
			<polygon class="st14" points="-621.6,15.6 -632.9,-20 -633.8,-20 -645.1,15.5 -656.7,-19.8 -657.9,-19.8 -645.6,17.4 
				-644.6,17.4 -633.4,-17.8 -622.2,17.4 -621.1,17.4 -608.8,-19.8 -610,-19.8 			"/>
			<linearGradient id="SVGID_15_" gradientUnits="userSpaceOnUse" x1="-590.6334" y1="-19.8498" x2="-590.6334" y2="17.1093">
				<stop  offset="0" style="stop-color:#4A0C0D"/>
				<stop  offset="1" style="stop-color:#911F1D"/>
			</linearGradient>
			<polygon class="st15" points="-602.5,-0.9 -580.1,-0.9 -580.1,-2 -602.5,-2 -602.5,-18.8 -577.9,-18.8 -577.9,-19.8 
				-603.7,-19.8 -603.7,17.1 -577.6,17.1 -577.6,16.1 -602.5,16.1 			"/>
			<linearGradient id="SVGID_16_" gradientUnits="userSpaceOnUse" x1="-556.8179" y1="-19.8498" x2="-556.8179" y2="17.1093">
				<stop  offset="0" style="stop-color:#4A0C0D"/>
				<stop  offset="1" style="stop-color:#911F1D"/>
			</linearGradient>
			<path class="st16" d="M-551.3-1.7c4.2-1,7.1-4.2,7.1-8.7v-0.1c0-2.5-0.8-4.6-2.4-6.1c-2.1-2.1-5.4-3.2-9.7-3.2h-15.2v37h16
				c8.3,0,13.2-3.5,13.2-9.6V7.4C-542.2,2.5-546.2-1-551.3-1.7z M-570.3-18.8h13.9c6.9,0,11,3.3,11,8.3v0.1c0,5.7-4.6,8.3-10.1,8.3
				h-14.8V-18.8z M-543.4,7.6c0,5.3-4.4,8.4-12,8.4h-14.8V-1.1h15.7c6.1,0,11.1,3,11.1,8.6V7.6z"/>
			<linearGradient id="SVGID_17_" gradientUnits="userSpaceOnUse" x1="-511.1239" y1="-20.4832" x2="-511.1239" y2="17.6368">
				<stop  offset="0" style="stop-color:#4A0C0D"/>
				<stop  offset="1" style="stop-color:#911F1D"/>
			</linearGradient>
			<path class="st17" d="M-496.8-0.8l-1-0.3c-1.6,4.3-3.2,7.5-5.2,10.3l-11.4-12.3c7.4-3.3,9.8-6,9.8-9.9V-13c0-3.7-3.2-7.4-8.2-7.4
				c-5.4,0-8.4,4.1-8.4,7.7v0.1c0,2.7,1.3,5.5,5,9.3C-521.3-1-526.4,1.7-526.4,8v0.1c0,5.1,4.4,9.6,10.9,9.6c5,0,9.1-2.6,12.5-6.8
				l6.3,6.8l0.8-0.7l-6.4-7C-500.1,7-498.3,3.4-496.8-0.8z M-520-12.8v-0.1c0-3.2,2.7-6.6,7.3-6.6c4.4,0,7.1,3.3,7.1,6.4v0.1
				c0,3.5-2.2,6-9.5,9.1C-518.9-7.6-520-10.3-520-12.8z M-515.5,16.6c-5.9,0-9.8-4-9.8-8.5V8c0-5.9,4.9-8.3,9.8-10.6l11.8,12.7
				C-506.7,14-510.8,16.6-515.5,16.6z"/>
			<linearGradient id="SVGID_18_" gradientUnits="userSpaceOnUse" x1="-463.213" y1="-19.8498" x2="-463.213" y2="17.1093">
				<stop  offset="0" style="stop-color:#4A0C0D"/>
				<stop  offset="1" style="stop-color:#911F1D"/>
			</linearGradient>
			<path class="st18" d="M-467.1-19.8H-479v37h11.9c11.6,0,19.6-8,19.6-18.4v-0.1C-447.5-11.8-455.5-19.8-467.1-19.8z M-448.6-1.3
				c0,9.7-7.6,17.3-18.4,17.3h-10.8v-34.8h10.7c10.9,0,18.5,7.7,18.5,17.4V-1.3z"/>
			<linearGradient id="SVGID_19_" gradientUnits="userSpaceOnUse" x1="-439.799" y1="-19.8498" x2="-439.799" y2="17.1093">
				<stop  offset="0" style="stop-color:#4A0C0D"/>
				<stop  offset="1" style="stop-color:#911F1D"/>
			</linearGradient>
			<rect x="-440.4" y="-19.8" class="st19" width="1.2" height="37"/>
			<linearGradient id="SVGID_20_" gradientUnits="userSpaceOnUse" x1="-419.2615" y1="-20.3772" x2="-419.2615" y2="17.6368">
				<stop  offset="0" style="stop-color:#4A0C0D"/>
				<stop  offset="1" style="stop-color:#911F1D"/>
			</linearGradient>
			<path class="st20" d="M-418.4-2.2c-9.1-1.8-11.9-4.2-11.9-8.7V-11c0-4.3,4.3-8.3,10.8-8.3c4.5,0,8.7,1.6,11.9,4.1l0.7-1
				c-3.4-2.6-7.7-4.2-12.6-4.2c-7,0-12,4.3-12,9.5v0.1c0,5.2,3.5,7.9,12.6,9.7c9.3,1.9,12.1,4.3,12.1,8.9v0.1c0,5-4.4,8.7-11.4,8.7
				c-5.4,0-10.1-2.1-13.9-5.7l-0.8,0.8c4,3.7,9,5.9,14.6,5.9c7.8,0,12.6-4.3,12.6-9.8V7.7C-405.6,2.7-408.8-0.2-418.4-2.2z"/>
			<linearGradient id="SVGID_21_" gradientUnits="userSpaceOnUse" x1="-386.2114" y1="-19.8498" x2="-386.2114" y2="17.1093">
				<stop  offset="0" style="stop-color:#4A0C0D"/>
				<stop  offset="1" style="stop-color:#911F1D"/>
			</linearGradient>
			<polygon class="st21" points="-398.1,-0.9 -375.7,-0.9 -375.7,-2 -398.1,-2 -398.1,-18.8 -373.4,-18.8 -373.4,-19.8 
				-399.3,-19.8 -399.3,17.1 -373.2,17.1 -373.2,16.1 -398.1,16.1 			"/>
			<linearGradient id="SVGID_22_" gradientUnits="userSpaceOnUse" x1="-351.3669" y1="-27.6628" x2="-351.3669" y2="-23.3336">
				<stop  offset="0" style="stop-color:#4A0C0D"/>
				<stop  offset="1" style="stop-color:#911F1D"/>
			</linearGradient>
			<path class="st22" d="M-347.9-24.7c-0.8,0-1.9-0.6-3.1-1.3c-1.3-0.7-2.6-1.5-3.7-1.5c-1.7,0-3.2,1.2-3.8,3.9l0.7,0.2
				c0.8-2.3,1.7-3,3-3c0.8,0,1.9,0.6,3.1,1.3c1.3,0.7,2.6,1.5,3.7,1.5c1.7,0,3.2-1.2,3.8-3.9l-0.7-0.2
				C-345.7-25.3-346.6-24.7-347.9-24.7z"/>
			<linearGradient id="SVGID_23_" gradientUnits="userSpaceOnUse" x1="-351.895" y1="-19.8498" x2="-351.895" y2="17.1093">
				<stop  offset="0" style="stop-color:#4A0C0D"/>
				<stop  offset="1" style="stop-color:#911F1D"/>
			</linearGradient>
			<polygon class="st23" points="-337.9,15.2 -366,-19.8 -367,-19.8 -367,17.1 -365.9,17.1 -365.9,-17.9 -337.8,17.1 -336.8,17.1 
				-336.8,-19.8 -337.9,-19.8 			"/>
			<linearGradient id="SVGID_24_" gradientUnits="userSpaceOnUse" x1="-311.7164" y1="-20.4832" x2="-311.7164" y2="17.7427">
				<stop  offset="0" style="stop-color:#4A0C0D"/>
				<stop  offset="1" style="stop-color:#911F1D"/>
			</linearGradient>
			<path class="st24" d="M-311.7-20.5c-11.2,0-18.4,9-18.4,19.1v0.1c0,10.1,7.2,19.1,18.4,19.1s18.4-9,18.4-19.1v-0.1
				C-293.3-11.5-300.5-20.5-311.7-20.5z M-294.5-1.3c0,9.5-6.8,18-17.2,18c-10.3,0-17.3-8.6-17.3-18.1v-0.1c0-9.5,6.8-18,17.2-18
				c10.3,0,17.3,8.6,17.3,18.1V-1.3z"/>
			<linearGradient id="SVGID_25_" gradientUnits="userSpaceOnUse" x1="-267.9233" y1="-25.0232" x2="-267.9233" y2="23.8674">
				<stop  offset="0" style="stop-color:#4A0C0D"/>
				<stop  offset="1" style="stop-color:#911F1D"/>
			</linearGradient>
			<polygon class="st25" points="-280.9,23.9 -279.7,23.9 -254.9,-25 -256.1,-25 			"/>
			<linearGradient id="SVGID_26_" gradientUnits="userSpaceOnUse" x1="-229.0923" y1="-14.1465" x2="-229.0923" y2="11.1953">
				<stop  offset="0" style="stop-color:#4A0C0D"/>
				<stop  offset="1" style="stop-color:#911F1D"/>
			</linearGradient>
			<polygon class="st26" points="-241.2,-12.9 -218.6,-1.5 -241.2,10 -241.2,11.2 -216.9,-1.2 -216.9,-1.7 -241.2,-14.1 			"/>
		</g>
	</g>
</g>
<g>
	
		<image style="overflow:visible;opacity:0.75;" width="2784" height="661" xlink:href="2B3720EB.png"  transform="matrix(0.24 0 0 0.24 -791.7093 61.2463)">
	</image>
	<g>
		<g>
			<path d="M-754.6,67.5h-22V136h22c21.5,0,36.4-14.9,36.4-34.1v-0.2C-718.2,82.4-733,67.5-754.6,67.5z M-720.3,101.9
				c0,17.9-14,32.1-34.1,32.1h-19.9V69.5h19.8c20.2,0,34.3,14.3,34.3,32.3V101.9z"/>
			<rect x="-707.5" y="67.5" width="3.3" height="68.5"/>
			<polygon points="-630.5,76.5 -630.5,136 -625.4,136 -625.4,67.5 -630.2,67.5 -657.7,108 -685.2,67.5 -690,67.5 -690,136 
				-685.1,136 -685.1,76.5 -658,115.9 -657.6,115.9 			"/>
			<path d="M-602.5,117.9h37.3l8,18.1h8.3L-580.1,67h-7.2l-31.2,68.9h7.9L-602.5,117.9z M-583.8,76l15.6,34.8h-31.2L-583.8,76z"/>
			<path d="M-490.2,103.9c2.7-3.5,4.1-8,4.1-13.5v-0.2c0-6.5-2-11.7-5.9-15.6c-4.6-4.6-11.3-6.9-20-6.9h-31.3V136h15.1v-21.9h11.6
				h0.2l14.7,21.9h17.6l-16.7-24.5C-496.5,109.9-492.9,107.3-490.2,103.9z M-501.4,91.1c0,2.9-1,5.3-3,7c-2,1.8-4.8,2.6-8.6,2.6
				h-15.3V81.1h15c3.7,0,6.6,0.8,8.7,2.4c2.1,1.6,3.1,4.1,3.1,7.3V91.1z"/>
			<polygon points="-445.4,96.6 -417.5,67.5 -435.7,67.5 -463.4,97.4 -463.4,67.5 -478.5,67.5 -478.5,136 -463.4,136 -463.4,115.1 
				-455.5,106.8 -434.3,136 -416.2,136 			"/>
			<polygon points="-361.3,122.6 -398.5,122.6 -398.5,108.2 -366.2,108.2 -366.2,94.8 -398.5,94.8 -398.5,80.9 -361.8,80.9 
				-361.8,67.5 -413.4,67.5 -413.4,136 -361.3,136 			"/>
			<polygon points="-338.1,136 -323.1,136 -323.1,81.4 -302.2,81.4 -302.2,67.5 -359,67.5 -359,81.4 -338.1,81.4 			"/>
			<rect x="-298" y="67.5" width="15.1" height="68.5"/>
			<polygon points="-226,109.7 -258.1,67.5 -272,67.5 -272,136 -257.1,136 -257.1,92.5 -224,136 -211.2,136 -211.2,67.5 -226,67.5 
							"/>
			<path d="M-168.5,96.6v13h15.2v9.8c-3.8,2.8-8.6,4.1-14.2,4.1c-3.1,0-5.9-0.5-8.4-1.6c-2.5-1.1-4.7-2.6-6.6-4.6
				c-1.9-2-3.3-4.3-4.3-6.9c-1-2.6-1.5-5.5-1.5-8.7v-0.2c0-2.9,0.5-5.7,1.5-8.3c1-2.6,2.4-4.8,4.2-6.8c1.8-1.9,3.9-3.5,6.3-4.6
				c2.4-1.1,4.9-1.7,7.7-1.7c2,0,3.7,0.2,5.4,0.5c1.6,0.3,3.1,0.8,4.5,1.4c1.4,0.6,2.8,1.3,4.1,2.2c1.3,0.8,2.6,1.8,3.9,2.9
				l9.5-11.4c-1.8-1.5-3.6-2.8-5.5-4c-1.9-1.2-3.9-2.2-6.1-2.9c-2.2-0.8-4.5-1.4-7-1.8c-2.5-0.4-5.3-0.6-8.4-0.6
				c-5.2,0-10,0.9-14.4,2.8c-4.4,1.9-8.2,4.4-11.3,7.6c-3.2,3.2-5.7,7-7.5,11.2c-1.8,4.3-2.7,8.9-2.7,13.7v0.2
				c0,5.1,0.9,9.8,2.6,14.1c1.8,4.3,4.2,8,7.4,11.1c3.2,3.1,6.9,5.6,11.3,7.3c4.4,1.8,9.3,2.6,14.6,2.6c6.3,0,11.8-1.1,16.7-3.2
				c4.9-2.1,9-4.7,12.6-7.7V96.6H-168.5z"/>
			<polygon points="-698.4,169.8 -674.1,182.2 -674.1,181 -696.7,169.5 -674.1,158.1 -674.1,156.9 -698.4,169.3 			"/>
			<polygon points="-621.6,186.6 -632.9,151 -633.8,151 -645.1,186.5 -656.7,151.2 -657.9,151.2 -645.6,188.4 -644.6,188.4 
				-633.4,153.2 -622.2,188.4 -621.1,188.4 -608.8,151.2 -610,151.2 			"/>
			<polygon points="-602.5,170.1 -580.1,170.1 -580.1,169 -602.5,169 -602.5,152.2 -577.9,152.2 -577.9,151.2 -603.7,151.2 
				-603.7,188.1 -577.6,188.1 -577.6,187.1 -602.5,187.1 			"/>
			<path d="M-551.3,169.3c4.2-1,7.1-4.2,7.1-8.7v-0.1c0-2.5-0.8-4.6-2.4-6.1c-2.1-2.1-5.4-3.2-9.7-3.2h-15.2v37h16
				c8.3,0,13.2-3.5,13.2-9.6v-0.1C-542.2,173.5-546.2,170-551.3,169.3z M-570.3,152.2h13.9c6.9,0,11,3.3,11,8.3v0.1
				c0,5.7-4.6,8.3-10.1,8.3h-14.8V152.2z M-543.4,178.6c0,5.3-4.4,8.4-12,8.4h-14.8v-17.1h15.7c6.1,0,11.1,3,11.1,8.6V178.6z"/>
			<path d="M-496.8,170.2l-1-0.3c-1.6,4.3-3.2,7.5-5.2,10.3l-11.4-12.3c7.4-3.3,9.8-6,9.8-9.9V158c0-3.7-3.2-7.4-8.2-7.4
				c-5.4,0-8.4,4.1-8.4,7.7v0.1c0,2.7,1.3,5.5,5,9.3c-5.1,2.4-10.2,5.1-10.2,11.4v0.1c0,5.1,4.4,9.6,10.9,9.6c5,0,9.1-2.6,12.5-6.8
				l6.3,6.8l0.8-0.7l-6.4-7C-500.1,178-498.3,174.4-496.8,170.2z M-520,158.2v-0.1c0-3.2,2.7-6.6,7.3-6.6c4.4,0,7.1,3.3,7.1,6.4v0.1
				c0,3.5-2.2,6-9.5,9.1C-518.9,163.4-520,160.7-520,158.2z M-515.5,187.6c-5.9,0-9.8-4-9.8-8.5V179c0-5.9,4.9-8.3,9.8-10.6
				l11.8,12.7C-506.7,185-510.8,187.6-515.5,187.6z"/>
			<path d="M-467.1,151.2H-479v37h11.9c11.6,0,19.6-8,19.6-18.4v-0.1C-447.5,159.2-455.5,151.2-467.1,151.2z M-448.6,169.7
				c0,9.7-7.6,17.3-18.4,17.3h-10.8v-34.8h10.7c10.9,0,18.5,7.7,18.5,17.4V169.7z"/>
			<rect x="-440.4" y="151.2" width="1.2" height="37"/>
			<path d="M-418.4,168.8c-9.1-1.8-11.9-4.2-11.9-8.7V160c0-4.3,4.3-8.3,10.8-8.3c4.5,0,8.7,1.6,11.9,4.1l0.7-1
				c-3.4-2.6-7.7-4.2-12.6-4.2c-7,0-12,4.3-12,9.5v0.1c0,5.2,3.5,7.9,12.6,9.7c9.3,1.9,12.1,4.3,12.1,8.9v0.1c0,5-4.4,8.7-11.4,8.7
				c-5.4,0-10.1-2.1-13.9-5.7l-0.8,0.8c4,3.7,9,5.9,14.6,5.9c7.8,0,12.6-4.3,12.6-9.8v-0.1C-405.6,173.7-408.8,170.8-418.4,168.8z"
				/>
			<polygon points="-398.1,170.1 -375.7,170.1 -375.7,169 -398.1,169 -398.1,152.2 -373.4,152.2 -373.4,151.2 -399.3,151.2 
				-399.3,188.1 -373.2,188.1 -373.2,187.1 -398.1,187.1 			"/>
			<path d="M-347.9,146.3c-0.8,0-1.9-0.6-3.1-1.3c-1.3-0.7-2.6-1.5-3.7-1.5c-1.7,0-3.2,1.2-3.8,3.9l0.7,0.2c0.8-2.3,1.7-3,3-3
				c0.8,0,1.9,0.6,3.1,1.3c1.3,0.7,2.6,1.5,3.7,1.5c1.7,0,3.2-1.2,3.8-3.9l-0.7-0.2C-345.7,145.7-346.6,146.3-347.9,146.3z"/>
			<polygon points="-337.9,186.2 -366,151.2 -367,151.2 -367,188.1 -365.9,188.1 -365.9,153.1 -337.8,188.1 -336.8,188.1 
				-336.8,151.2 -337.9,151.2 			"/>
			<path d="M-311.7,150.5c-11.2,0-18.4,9-18.4,19.1v0.1c0,10.1,7.2,19.1,18.4,19.1s18.4-9,18.4-19.1v-0.1
				C-293.3,159.5-300.5,150.5-311.7,150.5z M-294.5,169.7c0,9.5-6.8,18-17.2,18c-10.3,0-17.3-8.6-17.3-18.1v-0.1
				c0-9.5,6.8-18,17.2-18c10.3,0,17.3,8.6,17.3,18.1V169.7z"/>
			<polygon points="-280.9,194.9 -279.7,194.9 -254.9,146 -256.1,146 			"/>
			<polygon points="-241.2,158.1 -218.6,169.5 -241.2,181 -241.2,182.2 -216.9,169.8 -216.9,169.3 -241.2,156.9 			"/>
		</g>
	</g>
</g>
<g>
	<path d="M786.1,15.4h-22v68.5h22c21.5,0,36.4-14.9,36.4-34.1v-0.2C822.5,30.2,807.6,15.4,786.1,15.4z M820.3,49.8
		c0,17.9-14,32.1-34.1,32.1h-19.9V17.3H786c20.2,0,34.3,14.3,34.3,32.3V49.8z"/>
	<rect x="833.2" y="15.4" width="3.3" height="68.5"/>
	<polygon points="910.1,24.4 910.1,83.8 915.2,83.8 915.2,15.4 910.4,15.4 883,55.9 855.5,15.4 850.7,15.4 850.7,83.8 855.6,83.8 
		855.6,24.4 882.7,63.8 883,63.8 	"/>
	<path d="M938.2,65.7h37.3l8,18.1h8.3l-31.2-68.9h-7.2l-31.2,68.9h7.9L938.2,65.7z M956.9,23.9l15.6,34.8h-31.2L956.9,23.9z"/>
	<path d="M1050.4,51.7c2.7-3.5,4.1-8,4.1-13.5V38c0-6.5-2-11.7-5.9-15.6c-4.6-4.6-11.3-6.9-20-6.9h-31.3v68.5h15.1V61.9h11.6h0.2
		l14.7,21.9h17.6l-16.7-24.5C1044.2,57.8,1047.7,55.2,1050.4,51.7z M1039.2,38.9c0,2.9-1,5.3-3,7c-2,1.8-4.8,2.6-8.6,2.6h-15.3V29
		h15c3.7,0,6.6,0.8,8.7,2.4c2.1,1.6,3.1,4.1,3.1,7.3V38.9z"/>
	<polygon points="1095.3,44.4 1123.2,15.4 1105,15.4 1077.2,45.3 1077.2,15.4 1062.2,15.4 1062.2,83.8 1077.2,83.8 1077.2,62.9 
		1085.1,54.7 1106.4,83.8 1124.5,83.8 	"/>
	<polygon points="1179.3,70.4 1142.2,70.4 1142.2,56.1 1174.4,56.1 1174.4,42.7 1142.2,42.7 1142.2,28.8 1178.8,28.8 1178.8,15.4 
		1127.3,15.4 1127.3,83.8 1179.3,83.8 	"/>
	<polygon points="1202.5,83.8 1217.6,83.8 1217.6,29.3 1238.4,29.3 1238.4,15.4 1181.7,15.4 1181.7,29.3 1202.5,29.3 	"/>
	<rect x="1242.7" y="15.4" width="15.1" height="68.5"/>
	<polygon points="1314.6,57.5 1282.6,15.4 1268.7,15.4 1268.7,83.8 1283.5,83.8 1283.5,40.3 1316.7,83.8 1329.5,83.8 1329.5,15.4 
		1314.6,15.4 	"/>
	<path d="M1372.2,44.4v13h15.2v9.8c-3.8,2.8-8.6,4.1-14.2,4.1c-3.1,0-5.9-0.5-8.4-1.6c-2.5-1.1-4.7-2.6-6.6-4.6
		c-1.9-2-3.3-4.3-4.3-6.9c-1-2.6-1.5-5.5-1.5-8.7v-0.2c0-2.9,0.5-5.7,1.5-8.3c1-2.6,2.4-4.8,4.2-6.8c1.8-1.9,3.9-3.5,6.3-4.6
		c2.4-1.1,4.9-1.7,7.7-1.7c2,0,3.7,0.2,5.4,0.5c1.6,0.3,3.1,0.8,4.5,1.4c1.4,0.6,2.8,1.3,4.1,2.2c1.3,0.8,2.6,1.8,3.9,2.9l9.5-11.4
		c-1.8-1.5-3.6-2.8-5.5-4c-1.9-1.2-3.9-2.2-6.1-2.9c-2.2-0.8-4.5-1.4-7-1.8c-2.5-0.4-5.3-0.6-8.4-0.6c-5.2,0-10,0.9-14.4,2.8
		c-4.4,1.9-8.2,4.4-11.3,7.6c-3.2,3.2-5.7,7-7.5,11.2c-1.8,4.3-2.7,8.9-2.7,13.7v0.2c0,5.1,0.9,9.8,2.6,14.1c1.8,4.3,4.2,8,7.4,11.1
		c3.2,3.1,6.9,5.6,11.3,7.3c4.4,1.8,9.3,2.6,14.6,2.6c6.3,0,11.8-1.1,16.7-3.2c4.9-2.1,9-4.7,12.6-7.7V44.4H1372.2z"/>
</g>
<g>
	<path class="st1" d="M1514.8,15.4h-22v68.5h22c21.5,0,36.4-14.9,36.4-34.1v-0.2C1551.1,30.2,1536.3,15.4,1514.8,15.4z M1549,49.8
		c0,17.9-14,32.1-34.1,32.1h-19.9V17.3h19.8c20.2,0,34.3,14.3,34.3,32.3V49.8z"/>
	<rect x="1561.8" y="15.4" class="st1" width="3.3" height="68.5"/>
	<polygon class="st1" points="1638.8,24.4 1638.8,83.8 1643.9,83.8 1643.9,15.4 1639.1,15.4 1611.6,55.9 1584.1,15.4 1579.3,15.4 
		1579.3,83.8 1584.2,83.8 1584.2,24.4 1611.3,63.8 1611.7,63.8 	"/>
	<path class="st1" d="M1666.8,65.7h37.3l8,18.1h8.3l-31.2-68.9h-7.2l-31.2,68.9h7.9L1666.8,65.7z M1685.5,23.9l15.6,34.8h-31.2
		L1685.5,23.9z"/>
	<path class="st1" d="M1779.1,51.7c2.7-3.5,4.1-8,4.1-13.5V38c0-6.5-2-11.7-5.9-15.6c-4.6-4.6-11.3-6.9-20-6.9H1726v68.5h15.1V61.9
		h11.6h0.2l14.7,21.9h17.6l-16.7-24.5C1772.8,57.8,1776.4,55.2,1779.1,51.7z M1767.9,38.9c0,2.9-1,5.3-3,7c-2,1.8-4.8,2.6-8.6,2.6
		h-15.3V29h15c3.7,0,6.6,0.8,8.7,2.4c2.1,1.6,3.1,4.1,3.1,7.3V38.9z"/>
	<polygon class="st1" points="1824,44.4 1851.8,15.4 1833.7,15.4 1805.9,45.3 1805.9,15.4 1790.8,15.4 1790.8,83.8 1805.9,83.8 
		1805.9,62.9 1813.8,54.7 1835,83.8 1853.1,83.8 	"/>
	<polygon class="st1" points="1908,70.4 1870.8,70.4 1870.8,56.1 1903.1,56.1 1903.1,42.7 1870.8,42.7 1870.8,28.8 1907.5,28.8 
		1907.5,15.4 1856,15.4 1856,83.8 1908,83.8 	"/>
	<polygon class="st1" points="1931.2,83.8 1946.2,83.8 1946.2,29.3 1967.1,29.3 1967.1,15.4 1910.4,15.4 1910.4,29.3 1931.2,29.3 	
		"/>
	<rect x="1971.3" y="15.4" class="st1" width="15.1" height="68.5"/>
	<polygon class="st1" points="2043.3,57.5 2011.2,15.4 1997.3,15.4 1997.3,83.8 2012.2,83.8 2012.2,40.3 2045.3,83.8 2058.2,83.8 
		2058.2,15.4 2043.3,15.4 	"/>
	<path class="st1" d="M2100.8,44.4v13h15.2v9.8c-3.8,2.8-8.6,4.1-14.2,4.1c-3.1,0-5.9-0.5-8.4-1.6c-2.5-1.1-4.7-2.6-6.6-4.6
		c-1.9-2-3.3-4.3-4.3-6.9c-1-2.6-1.5-5.5-1.5-8.7v-0.2c0-2.9,0.5-5.7,1.5-8.3c1-2.6,2.4-4.8,4.2-6.8c1.8-1.9,3.9-3.5,6.3-4.6
		c2.4-1.1,4.9-1.7,7.7-1.7c2,0,3.7,0.2,5.4,0.5c1.6,0.3,3.1,0.8,4.5,1.4c1.4,0.6,2.8,1.3,4.1,2.2c1.3,0.8,2.6,1.8,3.9,2.9l9.5-11.4
		c-1.8-1.5-3.6-2.8-5.5-4c-1.9-1.2-3.9-2.2-6.1-2.9c-2.2-0.8-4.5-1.4-7-1.8c-2.5-0.4-5.3-0.6-8.4-0.6c-5.2,0-10,0.9-14.4,2.8
		c-4.4,1.9-8.2,4.4-11.3,7.6c-3.2,3.2-5.7,7-7.5,11.2c-1.8,4.3-2.7,8.9-2.7,13.7v0.2c0,5.1,0.9,9.8,2.6,14.1c1.8,4.3,4.2,8,7.4,11.1
		c3.2,3.1,6.9,5.6,11.3,7.3c4.4,1.8,9.3,2.6,14.6,2.6c6.3,0,11.8-1.1,16.7-3.2c4.9-2.1,9-4.7,12.6-7.7V44.4H2100.8z"/>
</g>
<g>
	<linearGradient id="SVGID_27_" gradientUnits="userSpaceOnUse" x1="64.6255" y1="18.5236" x2="64.6255" y2="86.9809">
		<stop  offset="0" style="stop-color:#4A0C0D"/>
		<stop  offset="1" style="stop-color:#911F1D"/>
	</linearGradient>
	<path class="st27" d="M57.4,18.5h-22V87h22C79,87,93.8,72.1,93.8,52.9v-0.2C93.8,33.4,79,18.5,57.4,18.5z M91.7,52.9
		c0,17.9-14,32.1-34.1,32.1H37.6V20.5h19.8c20.2,0,34.3,14.3,34.3,32.3V52.9z"/>
	<linearGradient id="SVGID_28_" gradientUnits="userSpaceOnUse" x1="106.1533" y1="18.5236" x2="106.1533" y2="86.9809">
		<stop  offset="0" style="stop-color:#4A0C0D"/>
		<stop  offset="1" style="stop-color:#911F1D"/>
	</linearGradient>
	<rect x="104.5" y="18.5" class="st28" width="3.3" height="68.5"/>
	<linearGradient id="SVGID_29_" gradientUnits="userSpaceOnUse" x1="154.2897" y1="18.5236" x2="154.2897" y2="86.9809">
		<stop  offset="0" style="stop-color:#4A0C0D"/>
		<stop  offset="1" style="stop-color:#911F1D"/>
	</linearGradient>
	<polygon class="st29" points="181.5,27.5 181.5,87 186.6,87 186.6,18.5 181.8,18.5 154.3,59 126.8,18.5 122,18.5 122,87 126.9,87 
		126.9,27.5 154,66.9 154.4,66.9 	"/>
	<linearGradient id="SVGID_30_" gradientUnits="userSpaceOnUse" x1="228.2967" y1="18.0349" x2="228.2967" y2="86.9809">
		<stop  offset="0" style="stop-color:#4A0C0D"/>
		<stop  offset="1" style="stop-color:#911F1D"/>
	</linearGradient>
	<path class="st30" d="M209.5,68.9h37.3l8,18.1h8.3L231.9,18h-7.2L193.5,87h7.9L209.5,68.9z M228.2,27l15.6,34.8h-31.2L228.2,27z"/>
	<linearGradient id="SVGID_31_" gradientUnits="userSpaceOnUse" x1="298.2853" y1="18.5189" x2="298.2853" y2="86.9809">
		<stop  offset="0" style="stop-color:#4A0C0D"/>
		<stop  offset="1" style="stop-color:#911F1D"/>
	</linearGradient>
	<path class="st31" d="M321.8,54.9c2.7-3.5,4.1-8,4.1-13.5v-0.2c0-6.5-2-11.7-5.9-15.6c-4.6-4.6-11.3-6.9-20-6.9h-31.3V87h15.1V65.1
		h11.6h0.2L310.3,87h17.6l-16.7-24.5C315.5,60.9,319.1,58.3,321.8,54.9z M310.6,42.1c0,2.9-1,5.3-3,7c-2,1.8-4.8,2.6-8.6,2.6h-15.3
		V32.1h15c3.7,0,6.6,0.8,8.7,2.4c2.1,1.6,3.1,4.1,3.1,7.3V42.1z"/>
	<linearGradient id="SVGID_32_" gradientUnits="userSpaceOnUse" x1="364.6434" y1="18.5189" x2="364.6434" y2="86.9809">
		<stop  offset="0" style="stop-color:#4A0C0D"/>
		<stop  offset="1" style="stop-color:#911F1D"/>
	</linearGradient>
	<polygon class="st32" points="366.6,47.6 394.5,18.5 376.3,18.5 348.6,48.4 348.6,18.5 333.5,18.5 333.5,87 348.6,87 348.6,66.1 
		356.5,57.8 377.7,87 395.8,87 	"/>
	<linearGradient id="SVGID_33_" gradientUnits="userSpaceOnUse" x1="424.6548" y1="18.5189" x2="424.6548" y2="86.9809">
		<stop  offset="0" style="stop-color:#4A0C0D"/>
		<stop  offset="1" style="stop-color:#911F1D"/>
	</linearGradient>
	<polygon class="st33" points="450.7,73.6 413.5,73.6 413.5,59.2 445.8,59.2 445.8,45.8 413.5,45.8 413.5,31.9 450.2,31.9 
		450.2,18.5 398.6,18.5 398.6,87 450.7,87 	"/>
	<linearGradient id="SVGID_34_" gradientUnits="userSpaceOnUse" x1="481.3902" y1="18.5189" x2="481.3902" y2="86.9809">
		<stop  offset="0" style="stop-color:#4A0C0D"/>
		<stop  offset="1" style="stop-color:#911F1D"/>
	</linearGradient>
	<polygon class="st34" points="473.9,87 488.9,87 488.9,32.4 509.8,32.4 509.8,18.5 453,18.5 453,32.4 473.9,32.4 	"/>
	<linearGradient id="SVGID_35_" gradientUnits="userSpaceOnUse" x1="521.5275" y1="18.5189" x2="521.5275" y2="86.9809">
		<stop  offset="0" style="stop-color:#4A0C0D"/>
		<stop  offset="1" style="stop-color:#911F1D"/>
	</linearGradient>
	<rect x="514" y="18.5" class="st35" width="15.1" height="68.5"/>
	<linearGradient id="SVGID_36_" gradientUnits="userSpaceOnUse" x1="570.4187" y1="18.5189" x2="570.4187" y2="86.9809">
		<stop  offset="0" style="stop-color:#4A0C0D"/>
		<stop  offset="1" style="stop-color:#911F1D"/>
	</linearGradient>
	<polygon class="st36" points="586,60.7 553.9,18.5 540,18.5 540,87 554.9,87 554.9,43.5 588,87 600.8,87 600.8,18.5 586,18.5 	"/>
	<linearGradient id="SVGID_37_" gradientUnits="userSpaceOnUse" x1="640.6115" y1="17.345" x2="640.6115" y2="88.1548">
		<stop  offset="0" style="stop-color:#4A0C0D"/>
		<stop  offset="1" style="stop-color:#911F1D"/>
	</linearGradient>
	<path class="st37" d="M643.5,47.6v13h15.2v9.8c-3.8,2.8-8.6,4.1-14.2,4.1c-3.1,0-5.9-0.5-8.4-1.6c-2.5-1.1-4.7-2.6-6.6-4.6
		c-1.9-2-3.3-4.3-4.3-6.9c-1-2.6-1.5-5.5-1.5-8.7v-0.2c0-2.9,0.5-5.7,1.5-8.3c1-2.6,2.4-4.8,4.2-6.8c1.8-1.9,3.9-3.5,6.3-4.6
		c2.4-1.1,4.9-1.7,7.7-1.7c2,0,3.7,0.2,5.4,0.5c1.6,0.3,3.1,0.8,4.5,1.4c1.4,0.6,2.8,1.3,4.1,2.2c1.3,0.8,2.6,1.8,3.9,2.9l9.5-11.4
		c-1.8-1.5-3.6-2.8-5.5-4c-1.9-1.2-3.9-2.2-6.1-2.9c-2.2-0.8-4.5-1.4-7-1.8c-2.5-0.4-5.3-0.6-8.4-0.6c-5.2,0-10,0.9-14.4,2.8
		c-4.4,1.9-8.2,4.4-11.3,7.6c-3.2,3.2-5.7,7-7.5,11.2c-1.8,4.3-2.7,8.9-2.7,13.7v0.2c0,5.1,0.9,9.8,2.6,14.1c1.8,4.3,4.2,8,7.4,11.1
		c3.2,3.1,6.9,5.6,11.3,7.3c4.4,1.8,9.3,2.6,14.6,2.6c6.3,0,11.8-1.1,16.7-3.2c4.9-2.1,9-4.7,12.6-7.7V47.6H643.5z"/>
</g>
</svg>
