<?xml version="1.0" encoding="utf-8"?>
<!-- Generator: Adobe Illustrator 27.4.1, SVG Export Plug-In . SVG Version: 6.00 Build 0)  -->
<svg version="1.1" id="Capa_1" xmlns="http://www.w3.org/2000/svg" xmlns:xlink="http://www.w3.org/1999/xlink" x="0px" y="0px"
	 viewBox="0 0 500 500" style="enable-background:new 0 0 500 500;" xml:space="preserve">
<style type="text/css">
	.st0{fill:#0E59A2;}
	.st1{fill:#FFFFFF;}
</style>
<circle class="st0" cx="250" cy="250" r="194.19"/>
<g>
	<path class="st1" d="M261.86,196.15c-9.6,29.47-5.75,41.1,3.3,71.27c2.92,9.74,7.78,18.18,15.07,25.41
		c13.79,13.67,16.97,33.72,8.5,50.92c-8.23,16.72-26.01,26.08-45.14,23.76c-18.13-2.2-33.09-16.04-37.09-34.54
		c-2.31-10.68-1.18-21.24,4.81-30.3c7.25-10.97,9.77-22.98,11.69-35.63c5.29-35,4.57-45.67,20.57-77.59
		c14.64-31.71,68.3-43.3,72.57-82.32C327.71,149.19,269.56,172.49,261.86,196.15z"/>
	<path class="st1" d="M209,282.07c-0.12,0.14-0.25,0.28-0.37,0.41c-26.97,30.36-15.38,79.29,23.08,92.34
		c25.95,8.81,54.13-2.12,67.46-25.19c12.44-21.53,9.67-48.07-7-66.62c-8.68-9.29,2.02-12.76,3.69-12.76c40.49,0,24.59,0,26.97,0
		c0.02,0,2.56-0.14,2.56-0.11c0,0,0.64,8.09-1.28,10.22c-3.77,4.19-11.56,4.1-11.56,4.1c-0.04,0-0.07,0.05-0.06,0.09
		c17.13,40.09,10.85,73.93-26.75,98.21c-25.11,16.21-58.53,12.33-81.88-7.21c-20.46-17.13-35.77-52.81-15.69-90.66
		c0.02-0.04-0.01-0.09-0.05-0.09h-2.52c-6.12,0-11.09-4.96-11.09-11.09v-3.47c0-0.03,0.01-0.06,0.05-0.06c2.33,0-9.09,0,29.12,0
		C209.84,270.18,213.11,277.47,209,282.07z"/>
</g>
</svg>
