<?xml version="1.0" encoding="utf-8"?>
<!-- Generator: Adobe Illustrator 27.4.1, SVG Export Plug-In . SVG Version: 6.00 Build 0)  -->
<svg version="1.1" id="Capa_1" xmlns="http://www.w3.org/2000/svg" xmlns:xlink="http://www.w3.org/1999/xlink" x="0px" y="0px"
	 viewBox="0 0 500 500" style="enable-background:new 0 0 500 500;" xml:space="preserve">
<style type="text/css">
	.st0{fill:#0E59A2;}
	.st1{fill:url(#SVGID_1_);}
	.st2{fill:url(#SVGID_00000179613376839880453300000000684017552678946728_);}
	.st3{fill:url(#SVGID_00000085234230052155747630000003653825695225330570_);}
	.st4{fill:url(#SVGID_00000169550367531504143370000014085626486692003491_);}
	.st5{fill:#FFFFFF;}
	.st6{fill:url(#SVGID_00000090280052655769017170000013174512072939270576_);}
	.st7{fill:url(#SVGID_00000166635521865858778340000008658715130680272304_);}
	.st8{fill:url(#SVGID_00000052820374664763625110000001995950891187922834_);}
	.st9{fill:url(#SVGID_00000180363350682749130970000010336847895042915209_);}
	.st10{fill:url(#SVGID_00000119119844200149543070000016488695559060711324_);}
	.st11{fill:url(#SVGID_00000034054390594916200990000006184946565121730180_);}
	.st12{fill:url(#SVGID_00000127008887291007587380000017019834350586203821_);}
	.st13{fill:url(#SVGID_00000160184707825681335700000013638401782281063808_);}
	.st14{fill:url(#SVGID_00000157305811940463495560000007180012377335661446_);}
	.st15{fill:url(#SVGID_00000094603444707923677020000010233790160596433321_);}
	.st16{fill:url(#SVGID_00000024700745080189392810000018237782533459376270_);}
	.st17{fill:url(#SVGID_00000174572599792393909120000018288351127465036688_);}
	.st18{fill:url(#SVGID_00000159456375091612013880000004091476610293188756_);}
	.st19{fill:url(#SVGID_00000130647743510759360880000013850654009414240439_);}
	.st20{fill:url(#SVGID_00000106828519607416960010000011495311520723374232_);}
	.st21{fill:url(#SVGID_00000085943644676384350560000006228849076052148904_);}
</style>
<g>
	<linearGradient id="SVGID_1_" gradientUnits="userSpaceOnUse" x1="100.0201" y1="250" x2="429.9759" y2="250">
		<stop  offset="0" style="stop-color:#6AB430"/>
		<stop  offset="1" style="stop-color:#ABC831"/>
	</linearGradient>
	<path class="st1" d="M427,258.51l-42.69-67.05c-3.64-5.61-9.8-8.95-16.49-8.95h-57.83v-55.18c0-10.92-8.83-19.8-19.68-19.8H119.7
		c-10.85,0-19.68,8.88-19.68,19.8v30.76c0,4.14,3.36,7.5,7.5,7.5c4.14,0,7.5-3.36,7.5-7.5v-30.76c0-2.61,2.15-4.81,4.69-4.81h170.6
		c2.54,0,4.69,2.2,4.69,4.81V275c0,2.61-2.15,4.81-4.69,4.81h-176.7c-7.49,0-13.59,6.13-13.59,13.65v43.07
		c0,14.31,11.56,25.96,25.78,25.96h27.47c3.48,17.09,18.63,30,36.74,30s33.25-12.9,36.74-30h91.51c3.48,17.09,18.63,30,36.74,30
		c18.11,0,33.25-12.9,36.74-30h12.76c14.06,0,25.5-11.29,25.5-25.18v-68.52C429.98,265.18,428.96,261.65,427,258.51z M190.01,377.48
		c-12.41,0-22.5-10.09-22.5-22.5c0-12.41,10.09-22.5,22.5-22.5c12.4,0,22.5,10.09,22.5,22.5
		C212.51,367.39,202.41,377.48,190.01,377.48z M354.99,377.48c-12.41,0-22.5-10.09-22.5-22.5c0-12.41,10.09-22.5,22.5-22.5
		c12.4,0,22.5,10.09,22.5,22.5C377.48,367.39,367.39,377.48,354.99,377.48z"/>
	<path class="st5" d="M392.48,257.5h-42.23l-10.51-39.43c-1.07-4-5.17-6.38-9.18-5.31c-4,1.07-6.38,5.18-5.31,9.18l12,44.99
		c0.87,3.28,3.85,5.57,7.25,5.57h47.99c4.14,0,7.5-3.36,7.5-7.5S396.62,257.5,392.48,257.5z"/>
	
		<linearGradient id="SVGID_00000096024294220689277670000004333189409828209296_" gradientUnits="userSpaceOnUse" x1="130.0161" y1="257.499" x2="250" y2="257.499">
		<stop  offset="0" style="stop-color:#6AB430"/>
		<stop  offset="1" style="stop-color:#ABC831"/>
	</linearGradient>
	<path style="fill:url(#SVGID_00000096024294220689277670000004333189409828209296_);" d="M130.02,257.5c0,4.14,3.36,7.5,7.5,7.5
		H242.5c4.14,0,7.5-3.36,7.5-7.5c0-4.14-3.36-7.5-7.5-7.5H137.52C133.37,250,130.02,253.36,130.02,257.5z"/>
	
		<linearGradient id="SVGID_00000152965746707881584280000007950466168606496947_" gradientUnits="userSpaceOnUse" x1="85.0221" y1="182.509" x2="205.006" y2="182.509">
		<stop  offset="0" style="stop-color:#6AB430"/>
		<stop  offset="1" style="stop-color:#ABC831"/>
	</linearGradient>
	<path style="fill:url(#SVGID_00000152965746707881584280000007950466168606496947_);" d="M92.52,190.01h104.99
		c4.14,0,7.5-3.36,7.5-7.5c0-4.14-3.36-7.5-7.5-7.5H92.52c-4.14,0-7.5,3.36-7.5,7.5C85.02,186.65,88.38,190.01,92.52,190.01z"/>
	
		<linearGradient id="SVGID_00000040561298483293569240000015414159495667563417_" gradientUnits="userSpaceOnUse" x1="70.0241" y1="220.004" x2="175.01" y2="220.004">
		<stop  offset="0" style="stop-color:#6AB430"/>
		<stop  offset="1" style="stop-color:#ABC831"/>
	</linearGradient>
	<path style="fill:url(#SVGID_00000040561298483293569240000015414159495667563417_);" d="M167.51,227.5c4.14,0,7.5-3.36,7.5-7.5
		c0-4.14-3.36-7.5-7.5-7.5H77.52c-4.14,0-7.5,3.36-7.5,7.5c0,4.14,3.36,7.5,7.5,7.5H167.51z"/>
	
		<linearGradient id="SVGID_00000156583617156946137620000003217102651273615797_" gradientUnits="userSpaceOnUse" x1="73.7736" y1="257.499" x2="111.2686" y2="257.499">
		<stop  offset="0" style="stop-color:#6AB430"/>
		<stop  offset="1" style="stop-color:#ABC831"/>
	</linearGradient>
	<path style="fill:url(#SVGID_00000156583617156946137620000003217102651273615797_);" d="M111.27,257.5c0-4.14-3.36-7.5-7.5-7.5
		h-22.5c-4.14,0-7.5,3.36-7.5,7.5c0,4.14,3.36,7.5,7.5,7.5h22.5C107.91,265,111.27,261.64,111.27,257.5z"/>
	
		<linearGradient id="SVGID_00000157999152144426671820000006585198595304574377_" gradientUnits="userSpaceOnUse" x1="190.008" y1="220.004" x2="220.004" y2="220.004">
		<stop  offset="0" style="stop-color:#6AB430"/>
		<stop  offset="1" style="stop-color:#ABC831"/>
	</linearGradient>
	<path style="fill:url(#SVGID_00000157999152144426671820000006585198595304574377_);" d="M212.51,212.51h-15
		c-4.14,0-7.5,3.36-7.5,7.5c0,4.14,3.36,7.5,7.5,7.5h15c4.14,0,7.5-3.36,7.5-7.5C220,215.86,216.65,212.51,212.51,212.51z"/>
</g>
</svg>
