<?xml version="1.0" encoding="utf-8"?>
<!-- Generator: Adobe Illustrator 27.4.1, SVG Export Plug-In . SVG Version: 6.00 Build 0)  -->
<svg version="1.1" id="Capa_1" xmlns="http://www.w3.org/2000/svg" xmlns:xlink="http://www.w3.org/1999/xlink" x="0px" y="0px"
	 viewBox="0 0 500 500" style="enable-background:new 0 0 500 500;" xml:space="preserve">
<style type="text/css">
	.st0{fill:#0E59A2;}
	.st1{fill:url(#SVGID_1_);}
	.st2{fill:url(#SVGID_00000138535378177749032330000014573670343781345164_);}
	.st3{fill:url(#SVGID_00000170251806657484534730000000467863085514098363_);}
	.st4{fill:url(#SVGID_00000141445352747807404630000007357553395044596650_);}
	.st5{fill:#FFFFFF;}
	.st6{fill:url(#SVGID_00000031188497010539628470000008046447383408766640_);}
	.st7{fill:url(#SVGID_00000129885210201775224890000002491646711068099473_);}
	.st8{fill:url(#SVGID_00000152965838475692054180000007503776604424177043_);}
	.st9{fill:url(#SVGID_00000049944065528105941690000006264299280318762420_);}
	.st10{fill:url(#SVGID_00000168806739902019030650000016295674206330857856_);}
	.st11{fill:url(#SVGID_00000121258769982116038830000005992715404398322060_);}
	.st12{fill:url(#SVGID_00000036953274347440846990000011277688525837535399_);}
	.st13{fill:url(#SVGID_00000005249126251017896110000012463604384849988759_);}
	.st14{fill:url(#SVGID_00000094601846894901137810000015981262945714265013_);}
	.st15{fill:url(#SVGID_00000062914615712070038200000008376989432193062844_);}
	.st16{fill:url(#SVGID_00000009566700149419935630000014746454113340235141_);}
	.st17{fill:url(#SVGID_00000036938530033514230150000009276156206688476061_);}
	.st18{fill:url(#SVGID_00000011008196199230813890000011250343071049156798_);}
	.st19{fill:url(#SVGID_00000084531066276729293220000002971443102039279008_);}
	.st20{fill:url(#SVGID_00000159457171055281204400000012805797880657241221_);}
	.st21{fill:url(#SVGID_00000004519052076302412960000014869919064029829290_);}
</style>
<g>
	<linearGradient id="SVGID_1_" gradientUnits="userSpaceOnUse" x1="63.2949" y1="180.3392" x2="436.7051" y2="180.3392">
		<stop  offset="0" style="stop-color:#6AB430"/>
		<stop  offset="1" style="stop-color:#ABC831"/>
	</linearGradient>
	<path class="st1" d="M250,247.72l186.71-106.9v-0.46c0-7.57-2.81-14.03-8.41-19.38c-5.61-5.35-12.38-8.03-20.31-8.03H92.02
		c-7.93,0-14.7,2.68-20.31,8.03c-5.61,5.35-8.41,11.81-8.41,19.38v0.46L250,247.72z"/>
	
		<linearGradient id="SVGID_00000137831718337159073810000014275597598741289645_" gradientUnits="userSpaceOnUse" x1="63.2949" y1="279.9171" x2="436.7051" y2="279.9171">
		<stop  offset="0" style="stop-color:#6AB430"/>
		<stop  offset="1" style="stop-color:#ABC831"/>
	</linearGradient>
	<path style="fill:url(#SVGID_00000137831718337159073810000014275597598741289645_);" d="M257.4,275.45
		c-4.93,2.83-9.86,2.83-14.79,0L63.29,172.79v186.85c0,7.57,2.81,14.03,8.41,19.38c5.61,5.35,12.38,8.03,20.31,8.03h315.96
		c7.93,0,14.7-2.68,20.31-8.03c5.61-5.35,8.41-11.81,8.41-19.38V172.79L257.4,275.45z"/>
</g>
</svg>
