<?xml version="1.0" encoding="utf-8"?>
<!-- Generator: Adobe Illustrator 27.4.1, SVG Export Plug-In . SVG Version: 6.00 Build 0)  -->
<svg version="1.1" id="Capa_1" xmlns="http://www.w3.org/2000/svg" xmlns:xlink="http://www.w3.org/1999/xlink" x="0px" y="0px"
	 viewBox="0 0 500 500" style="enable-background:new 0 0 500 500;" xml:space="preserve">
<style type="text/css">
	.st0{fill:#0E59A2;}
	.st1{fill:url(#SVGID_1_);}
	.st2{fill:url(#SVGID_00000087405703683664698230000004086631086846892183_);}
	.st3{fill:url(#SVGID_00000071539052317712771460000003780598887081299127_);}
	.st4{fill:url(#SVGID_00000150101408041347970640000003401393133309111189_);}
	.st5{fill:#FFFFFF;}
	.st6{fill:url(#SVGID_00000122711371754799204050000000052854318133447604_);}
	.st7{fill:url(#SVGID_00000083058405905582682160000009695678485156356759_);}
	.st8{fill:url(#SVGID_00000161597957222334792550000012381124846068516532_);}
	.st9{fill:url(#SVGID_00000109727901376095761970000012440411894223482540_);}
	.st10{fill:url(#SVGID_00000150090027211452607460000017412489613266432398_);}
	.st11{fill:url(#SVGID_00000029031908348218247130000016768778989490450067_);}
	.st12{fill:url(#SVGID_00000060725996006240029580000007894819780386075835_);}
	.st13{fill:url(#SVGID_00000149384272891413485380000007493596686322049471_);}
	.st14{fill:url(#SVGID_00000030470061884514839020000011736244504095654029_);}
	.st15{fill:url(#SVGID_00000026146381478611421540000001057312181703289531_);}
	.st16{fill:url(#SVGID_00000088853610435943042730000008836905997344565141_);}
	.st17{fill:url(#SVGID_00000042723911812791870990000016318219545490192567_);}
	.st18{fill:url(#SVGID_00000035521003189260143230000006554109755938719624_);}
	.st19{fill:url(#SVGID_00000170255579319212840460000010266957836208001924_);}
	.st20{fill:url(#SVGID_00000126296737700741948710000002801970625267892131_);}
	.st21{fill:url(#SVGID_00000118366834486303655770000013489909177371673252_);}
</style>
<g>
	<g>
		
			<linearGradient id="SVGID_1_" gradientUnits="userSpaceOnUse" x1="-81.5223" y1="92.5809" x2="142.5398" y2="92.5809" gradientTransform="matrix(1.1783 0.446 -0.5047 1.1944 226.0489 126.1971)">
			<stop  offset="0" style="stop-color:#6AB430"/>
			<stop  offset="1" style="stop-color:#ABC831"/>
		</linearGradient>
		<path class="st1" d="M295.84,422.05c0,0-61.79,53.81-107.61,0.9c-45.83-52.91-75.93-109-80.65-151.02
			c-4.72-42.03-18.03-151.18,41.22-191.86c0,0,30.92-18.09,61.57-23.7l-21.72,105.07c0,0-29.18,5.66-27.57,31.42
			c1.61,25.77,27.14,129.44,27.14,129.44s9.95,31.91,41.75,21.2L295.84,422.05z"/>
		
			<linearGradient id="SVGID_00000044175658399964250420000013783841852868456836_" gradientUnits="userSpaceOnUse" x1="75.1697" y1="162.1695" x2="149.0537" y2="162.1695" gradientTransform="matrix(1.1783 0.446 -0.5047 1.1944 226.0489 126.1971)">
			<stop  offset="0" style="stop-color:#6AB430"/>
			<stop  offset="1" style="stop-color:#ABC831"/>
		</linearGradient>
		<path style="fill:url(#SVGID_00000044175658399964250420000013783841852868456836_);" d="M302.99,415.67
			c0,0,6.11-2.74,10.78-15.07c4.68-12.33,1.3-16.11,1.3-16.11l-45.83-52.92c0,0-5.09-0.9-10.96-1.09
			c-5.88-0.19-20.25,4.48-19.14,8.93C240.27,343.83,302.99,415.67,302.99,415.67L302.99,415.67z"/>
		
			<linearGradient id="SVGID_00000176013983285565966600000008483901896254979213_" gradientUnits="userSpaceOnUse" x1="-26.1666" y1="-8.7281" x2="9.7908" y2="-8.7281" gradientTransform="matrix(1.1783 0.446 -0.5047 1.1944 226.0489 126.1971)">
			<stop  offset="0" style="stop-color:#6AB430"/>
			<stop  offset="1" style="stop-color:#ABC831"/>
		</linearGradient>
		<path style="fill:url(#SVGID_00000176013983285565966600000008483901896254979213_);" d="M198.99,162.25l25.53-6.98
			c0,0,4.64-2.79,7.61-12.24c2.96-9.46,14-64.2,14-64.2s1.5-9.5-4.82-13.38c-6.32-3.88-20.42-11.69-20.42-11.69L198.99,162.25z"/>
	</g>
	<g>
		
			<linearGradient id="SVGID_00000048480124347114072120000008342967812366233223_" gradientUnits="userSpaceOnUse" x1="298.0309" y1="215.1574" x2="414.7339" y2="215.1574" gradientTransform="matrix(0.9193 0.3936 -0.3936 0.9193 119.3207 -114.6297)">
			<stop  offset="0" style="stop-color:#6AB430"/>
			<stop  offset="1" style="stop-color:#ABC831"/>
		</linearGradient>
		<path style="fill:url(#SVGID_00000048480124347114072120000008342967812366233223_);" d="M382.36,303.31
			c-3.56-1.53-5.71-5.38-4.95-9.34c4.87-25.27,3.4-50.18-4.34-74.05c-7.75-23.87-21.2-44.89-39.98-62.48
			c-3.4-3.18-3.57-8.51-0.39-11.91s8.51-3.57,11.91-0.39c20.88,19.56,35.85,42.97,44.49,69.58c8.64,26.61,10.28,54.35,4.86,82.44
			c-0.88,4.57-5.3,7.56-9.87,6.68C383.48,303.72,382.9,303.54,382.36,303.31z"/>
	</g>
	<g>
		
			<linearGradient id="SVGID_00000016793736528761504880000002020814163751756964_" gradientUnits="userSpaceOnUse" x1="292.823" y1="235.4184" x2="373.597" y2="235.4184" gradientTransform="matrix(0.9193 0.3936 -0.3936 0.9193 119.3207 -114.6297)">
			<stop  offset="0" style="stop-color:#6AB430"/>
			<stop  offset="1" style="stop-color:#ABC831"/>
		</linearGradient>
		<path style="fill:url(#SVGID_00000016793736528761504880000002020814163751756964_);" d="M344.66,286.86
			c-3.28-1.4-5.42-4.8-5.07-8.54c1.46-15.6-0.24-31.05-5.06-45.89c-4.82-14.85-12.51-28.35-22.86-40.11
			c-3.07-3.49-2.73-8.82,0.76-11.89c3.49-3.07,8.82-2.73,11.89,0.76c11.88,13.5,20.71,28.99,26.24,46.04
			c5.53,17.05,7.49,34.77,5.81,52.67c-0.43,4.63-4.54,8.04-9.18,7.6C346.29,287.42,345.44,287.2,344.66,286.86z"/>
	</g>
</g>
</svg>
