<?xml version="1.0" encoding="utf-8"?>
<!-- Generator: Adobe Illustrator 27.4.1, SVG Export Plug-In . SVG Version: 6.00 Build 0)  -->
<svg version="1.1" id="Capa_1" xmlns="http://www.w3.org/2000/svg" xmlns:xlink="http://www.w3.org/1999/xlink" x="0px" y="0px"
	 viewBox="0 0 500 500" style="enable-background:new 0 0 500 500;" xml:space="preserve">
<style type="text/css">
	.st0{fill:#0E59A2;}
	.st1{fill:url(#SVGID_1_);}
	.st2{fill:url(#SVGID_00000069376662659726057650000001936471969549790606_);}
	.st3{fill:url(#SVGID_00000036239928668513100300000017014469122593999799_);}
	.st4{fill:url(#SVGID_00000052816862280782837140000011501528341716175030_);}
	.st5{fill:#FFFFFF;}
	.st6{fill:url(#SVGID_00000071558612959535565810000017094367248491600047_);}
	.st7{fill:url(#SVGID_00000154428026562609401400000018275065344171530129_);}
	.st8{fill:url(#SVGID_00000139290949046051397100000000130677913537976450_);}
	.st9{fill:url(#SVGID_00000046314046740950352030000001970654767447882940_);}
	.st10{fill:url(#SVGID_00000155143161191554424530000015076571885257768841_);}
	.st11{fill:url(#SVGID_00000000915038384956964410000009330061681482860184_);}
	.st12{fill:url(#SVGID_00000174593816380121752440000007025071244732302978_);}
	.st13{fill:url(#SVGID_00000018951502439602013260000017818900229762453396_);}
	.st14{fill:url(#SVGID_00000116926456492399016170000001848125030977645954_);}
	.st15{fill:url(#SVGID_00000003786908020632601130000005093661213574113722_);}
	.st16{fill:url(#SVGID_00000101789555410607520320000007585388489288040341_);}
	.st17{fill:url(#SVGID_00000006675950688105274490000012794256010392767161_);}
	.st18{fill:url(#SVGID_00000009572190850983679120000003764611145113781129_);}
	.st19{fill:url(#SVGID_00000033361699752817050360000016371394468783098764_);}
	.st20{fill:url(#SVGID_00000147927708877555301170000005743274141688824229_);}
	.st21{fill:url(#SVGID_00000165194118118265411490000013512411960245008831_);}
</style>
<g>
	<linearGradient id="SVGID_1_" gradientUnits="userSpaceOnUse" x1="77.8188" y1="250" x2="422.1812" y2="250">
		<stop  offset="0" style="stop-color:#6AB430"/>
		<stop  offset="1" style="stop-color:#ABC831"/>
	</linearGradient>
	<path class="st1" d="M422.18,235.91c0,7.63,0,15.26,0,22.89c-0.21,0.74-0.5,1.46-0.61,2.21c-1.18,7.85-1.8,15.82-3.57,23.53
		c-8.83,38.36-28.57,70.1-59.28,94.7c-33.34,26.7-71.55,39.03-114.28,37.15c-21.27-0.94-41.67-5.72-60.93-14.67
		c-5.44-2.53-10.13-2.98-15.88-1.4c-27.17,7.43-54.45,14.45-81.69,21.6c-3.82,1-6.99-0.01-7.83-3.04c-0.52-1.88-0.26-4.23,0.36-6.13
		c8.21-24.96,16.4-49.92,24.99-74.75c1.7-4.92,1.14-8.62-1.19-13.13c-18.25-35.3-23.34-72.62-15.63-111.51
		c5.82-29.39,18.85-55.45,38.74-77.87c27.17-30.62,61.01-49.33,101.51-55.79c4.73-0.75,9.48-1.32,14.22-1.98c7.63,0,15.26,0,22.89,0
		c0.97,0.22,1.94,0.48,2.92,0.64c9.25,1.54,18.66,2.41,27.71,4.7c35.26,8.91,64.6,27.57,87.99,55.37
		c19.33,22.98,31.75,49.32,36.9,78.97C420.57,223.53,421.3,229.73,422.18,235.91z M308.32,353.28c5.72,0.16,13.68-1.77,21.25-5.47
		c12.6-6.15,21.94-16.2,30.93-26.5c2.18-2.5,3.17-6.4,3.79-9.82c1.4-7.72-2.3-13.89-7.08-19.5c-8.24-9.68-18.57-16.83-29.14-23.64
		c-2.7-1.74-5.63-3.29-8.65-4.36c-7.8-2.76-14.13-0.75-19.42,5.6c-2.79,3.36-5.66,6.68-8.67,9.84c-6.93,7.3-15.78,7.56-23.19,0.67
		c-3.94-3.66-7.69-7.53-11.49-11.34c-12.28-12.3-24.66-24.51-36.78-36.97c-7.09-7.29-6.74-16.16,0.56-23.17
		c3.39-3.25,7.03-6.27,10.65-9.27c2.87-2.38,4.73-5.23,5.56-8.9c1.03-4.52,0.29-8.83-1.82-12.7c-7.34-13.46-16.08-25.95-27.92-35.86
		c-11.34-9.49-22.78-8.76-33.17,1.68c-4.03,4.05-8.11,8.08-11.89,12.36c-15.37,17.43-19.14,37.21-11.32,59.06
		c5.38,15.04,14.57,27.78,25.59,39.08c21.07,21.59,42.35,42.98,63.89,64.1c7.41,7.27,15.49,13.98,23.92,20.05
		C276.27,347.11,289.97,353.03,308.32,353.28z"/>
</g>
</svg>
