<?xml version="1.0" encoding="utf-8"?>
<!-- Generator: Adobe Illustrator 27.4.1, SVG Export Plug-In . SVG Version: 6.00 Build 0)  -->
<svg version="1.1" id="Capa_1" xmlns="http://www.w3.org/2000/svg" xmlns:xlink="http://www.w3.org/1999/xlink" x="0px" y="0px"
	 viewBox="0 0 500 500" style="enable-background:new 0 0 500 500;" xml:space="preserve">
<style type="text/css">
	.st0{fill:#0E59A2;}
	.st1{fill:url(#SVGID_1_);}
	.st2{fill:url(#SVGID_00000034808122902333157600000009791685321435617165_);}
	.st3{fill:url(#SVGID_00000142139577808274932310000014538179556208446376_);}
	.st4{fill:url(#SVGID_00000087401637249133188200000007575813985139866507_);}
	.st5{fill:#FFFFFF;}
	.st6{fill:url(#SVGID_00000049195217899545859520000006094736175715426214_);}
	.st7{fill:url(#SVGID_00000091735278057840082430000006139954357322545830_);}
	.st8{fill:url(#SVGID_00000172402725103534265000000014530825892476372113_);}
	.st9{fill:url(#SVGID_00000176039793250088484900000016240311048194465969_);}
	.st10{fill:url(#SVGID_00000033342709072694892720000009110063810954217888_);}
	.st11{fill:url(#SVGID_00000059308766522892787900000017754152072628521912_);}
	.st12{fill:url(#SVGID_00000025423691638534874310000014493244423301445799_);}
	.st13{fill:url(#SVGID_00000057839653426518329160000001768963333520071344_);}
	.st14{fill:url(#SVGID_00000022535621083194169120000005754079478928732824_);}
	.st15{fill:url(#SVGID_00000030468807266360219150000015706976947364472492_);}
	.st16{fill:url(#SVGID_00000155114714091854469500000003267710741226483852_);}
	.st17{fill:url(#SVGID_00000004545089489610607990000005110806819964335002_);}
	.st18{fill:url(#SVGID_00000149361632289446042130000007665707226592521611_);}
	.st19{fill:url(#SVGID_00000039838685271526270120000005338400698404710045_);}
	.st20{fill:url(#SVGID_00000106847926813322276200000014687497422162177200_);}
	.st21{fill:url(#SVGID_00000077317062356046485810000006729731127472201859_);}
</style>
<linearGradient id="SVGID_1_" gradientUnits="userSpaceOnUse" x1="53.766" y1="250" x2="446.234" y2="250">
	<stop  offset="0" style="stop-color:#6AB430"/>
	<stop  offset="1" style="stop-color:#ABC831"/>
</linearGradient>
<path class="st1" d="M413.53,102.82H86.47c-18.03,0-32.71,14.67-32.71,32.71v228.94c0,18.03,14.67,32.71,32.71,32.71h53.54h28.23
	h245.29c18.03,0,32.71-14.67,32.71-32.71V135.53C446.23,117.5,431.56,102.82,413.53,102.82z M86.47,119.18h327.06
	c9.02,0,16.35,7.34,16.35,16.35v24.53H70.12v-24.53C70.12,126.51,77.45,119.18,86.47,119.18z M413.53,380.82H168.24h-28.23H86.47
	c-9.02,0-16.35-7.34-16.35-16.35v-139h359.76v139C429.88,373.49,422.54,380.82,413.53,380.82z"/>
</svg>
